<svg width="359" height="283" viewBox="0 0 359 283" fill="none" xmlns="http://www.w3.org/2000/svg">
<g clip-path="url(#clip0_0_5675)">
<path d="M85.9833 152.952C83.125 137.654 87.6251 120.251 100.133 110.991C99.4239 127.9 104.719 144.514 115.081 157.895C119.095 163.041 124.097 168.346 123.941 174.871C123.845 178.931 121.649 182.714 118.755 185.563C115.862 188.413 112.297 190.467 108.775 192.489L108.227 193.342C97.9032 181.697 88.8416 168.25 85.9833 152.952Z" fill="#F0F0F0"/>
<path d="M100.36 111.224C95.105 122.985 93.6894 136.103 96.3141 148.714C96.8309 151.439 97.774 154.065 99.1087 156.496C100.485 158.822 102.46 160.738 104.827 162.043C107.01 163.304 109.389 164.341 111.227 166.111C112.154 167.031 112.877 168.137 113.347 169.355C113.817 170.574 114.024 171.879 113.955 173.183C113.867 176.438 112.615 179.467 111.287 182.387C109.813 185.628 108.231 188.972 108.326 192.617C108.338 193.058 107.652 193.05 107.641 192.609C107.474 186.268 112.059 181.176 113.08 175.092C113.557 172.253 113.181 169.253 111.185 167.052C109.439 165.128 106.987 164.056 104.766 162.798C102.438 161.558 100.449 159.768 98.9726 157.583C97.5185 155.227 96.4757 152.642 95.8891 149.936C94.4712 143.867 94.0164 137.613 94.5414 131.402C95.1012 124.31 96.8701 117.367 99.7713 110.872C99.9511 110.47 100.538 110.825 100.36 111.224Z" fill="white"/>
<path d="M95.23 144.703C93.0544 144.856 90.8952 144.231 89.138 142.939C87.3808 141.647 86.14 139.773 85.6372 137.651C85.537 137.221 86.2001 137.045 86.3005 137.475C86.765 139.452 87.921 141.198 89.5597 142.398C91.1985 143.598 93.2121 144.172 95.2372 144.017C95.6773 143.984 95.6676 144.67 95.23 144.703Z" fill="white"/>
<path d="M103.636 161.549C106.59 158.21 108.176 153.879 108.078 149.422C108.068 148.98 108.754 148.988 108.764 149.429C108.857 154.068 107.197 158.571 104.116 162.04C103.822 162.37 103.344 161.878 103.636 161.549Z" fill="white"/>
<path d="M95.9051 124.737C96.7593 124.853 97.6289 124.756 98.4359 124.453C99.2429 124.15 99.962 123.651 100.529 123.001C100.818 122.667 101.296 123.16 101.009 123.491C100.379 124.206 99.5843 124.756 98.6934 125.093C97.8026 125.429 96.8428 125.543 95.8979 125.423C95.8079 125.419 95.7228 125.381 95.6597 125.317C95.5967 125.253 95.5605 125.167 95.5586 125.076C95.56 124.986 95.5972 124.899 95.6621 124.836C95.727 124.772 95.8143 124.737 95.9051 124.737Z" fill="white"/>
<path d="M151.282 123.644C151.107 123.858 150.932 124.072 150.759 124.291C148.423 127.176 146.325 130.246 144.486 133.471C144.34 133.718 144.195 133.97 144.056 134.221C139.709 142.038 136.85 150.594 135.625 159.454C135.141 162.98 134.926 166.538 134.982 170.097C135.059 175.011 135.534 180.334 134.027 184.854C133.875 185.328 133.694 185.791 133.485 186.242L109.31 193.945C109.246 193.934 109.184 193.93 109.12 193.92L108.169 194.272C108.153 194.088 108.141 193.898 108.125 193.715C108.116 193.608 108.112 193.5 108.102 193.394C108.097 193.322 108.093 193.251 108.085 193.187C108.083 193.163 108.082 193.139 108.082 193.121C108.073 193.057 108.073 192.996 108.066 192.937C107.994 191.873 107.928 190.807 107.872 189.737C107.871 189.731 107.871 189.731 107.874 189.724C107.459 181.575 107.721 173.32 109.227 165.367C109.273 165.128 109.316 164.883 109.373 164.641C110.071 161.06 111.062 157.542 112.334 154.122C113.036 152.252 113.833 150.418 114.721 148.629C117.024 144.009 120.04 139.78 123.657 136.097C130.869 128.757 140.349 123.804 150.506 123.648C150.766 123.645 151.021 123.642 151.282 123.644Z" fill="#F0F0F0"/>
<path d="M151.325 123.968C140.049 130.195 131.021 139.816 125.524 151.465C124.296 153.952 123.468 156.617 123.07 159.362C122.768 162.048 123.192 164.766 124.296 167.233C125.28 169.554 126.554 171.815 126.956 174.335C127.143 175.628 127.054 176.945 126.696 178.201C126.338 179.458 125.718 180.624 124.877 181.624C122.847 184.17 120.024 185.834 117.206 187.366C114.077 189.067 110.801 190.784 108.683 193.752C108.426 194.111 107.883 193.692 108.139 193.333C111.824 188.17 118.55 186.864 123.029 182.621C125.119 180.641 126.625 178.019 126.356 175.06C126.121 172.473 124.809 170.141 123.793 167.799C122.68 165.408 122.17 162.781 122.307 160.147C122.564 157.391 123.288 154.699 124.448 152.186C126.97 146.486 130.373 141.218 134.531 136.576C139.248 131.25 144.841 126.772 151.068 123.332C151.453 123.12 151.708 123.757 151.325 123.968Z" fill="white"/>
<path d="M127.073 147.611C125.243 146.423 123.896 144.624 123.271 142.535C122.645 140.445 122.783 138.201 123.66 136.204C123.838 135.801 124.474 136.059 124.295 136.463C123.475 138.322 123.347 140.412 123.933 142.356C124.519 144.301 125.781 145.972 127.491 147.068C127.863 147.306 127.442 147.848 127.073 147.611Z" fill="white"/>
<path d="M123.643 166.122C128.012 165.233 131.885 162.731 134.491 159.113C134.749 158.755 135.292 159.174 135.035 159.532C132.316 163.291 128.28 165.888 123.731 166.802C123.297 166.889 123.212 166.208 123.643 166.122Z" fill="white"/>
<path d="M139.633 132.075C140.245 132.682 140.998 133.127 141.825 133.371C142.652 133.615 143.526 133.65 144.37 133.472C144.802 133.38 144.887 134.061 144.458 134.152C143.525 134.344 142.559 134.305 141.645 134.037C140.731 133.77 139.896 133.282 139.214 132.618C139.145 132.561 139.099 132.479 139.088 132.39C139.076 132.3 139.099 132.21 139.152 132.137C139.208 132.065 139.289 132.018 139.38 132.007C139.47 131.995 139.561 132.019 139.633 132.075Z" fill="white"/>
<path d="M189.255 39.9906C189.335 40.3467 189.388 40.7085 189.412 41.0728L217.757 57.4247L224.646 53.4585L231.991 63.0737L220.477 71.2803C219.547 71.9433 218.426 72.2866 217.285 72.2588C216.143 72.231 215.04 71.8335 214.144 71.126L184.916 48.0678C183.597 48.5561 182.16 48.6312 180.797 48.2832C179.435 47.9351 178.21 47.1804 177.287 46.1195C176.363 45.0585 175.785 43.7416 175.628 42.3438C175.471 40.946 175.744 39.5337 176.41 38.2946C177.075 37.0556 178.102 36.0485 179.354 35.4074C180.606 34.7663 182.024 34.5215 183.418 34.7056C184.812 34.8897 186.118 35.494 187.16 36.4381C188.203 37.3822 188.933 38.6213 189.255 39.9906Z" fill="#FFB6B6"/>
<path d="M218.151 55.6192C218.241 55.2021 218.42 54.8093 218.675 54.4676C218.931 54.1259 219.257 53.8434 219.632 53.6393L232.718 46.5092C234.461 45.194 236.654 44.6235 238.817 44.9229C240.979 45.2223 242.935 46.3672 244.255 48.1064C245.575 49.8456 246.151 52.0373 245.857 54.2007C245.563 56.3641 244.423 58.3228 242.688 59.6471L232.199 70.3019C231.9 70.6059 231.539 70.8419 231.14 70.9937C230.741 71.1455 230.314 71.2096 229.889 71.1816C229.463 71.1536 229.048 71.0341 228.673 70.8314C228.297 70.6287 227.97 70.3474 227.713 70.0068L218.683 58.0341C218.426 57.6935 218.245 57.3015 218.153 56.8847C218.062 56.4679 218.061 56.0363 218.151 55.6192Z" fill="#3F3D56"/>
<path d="M241.53 14.1685C243.413 8.168 247.695 2.66455 253.616 0.63605C259.538 -1.39244 268.209 1.69761 272.66 6.13436C280.804 14.2501 282.791 42.1304 277.196 50.9409C276.083 50.882 272.243 50.8385 271.117 50.7963L269.524 45.486V50.7439C260.733 50.4723 251.581 50.6424 242.423 50.8183C241.602 44.5804 239.647 20.169 241.53 14.1685Z" fill="#2F2E41"/>
<path d="M239.01 266.038H230.992L227.178 235.11L239.012 235.111L239.01 266.038Z" fill="#FFB6B6"/>
<path d="M309.202 261.052L301.444 263.074L289.951 234.108L301.403 231.124L309.202 261.052Z" fill="#FFB6B6"/>
<path d="M265.015 76.0839L266.832 80.8076L266.468 85.5313L230.911 97.847L232.676 77.174L236.672 72.4497L265.015 76.0839Z" fill="#FFB6B6"/>
<path d="M253.773 33.5749C260.787 33.5749 266.473 27.8891 266.473 20.8752C266.473 13.8614 260.787 8.17554 253.773 8.17554C246.759 8.17554 241.073 13.8614 241.073 20.8752C241.073 27.8891 246.759 33.5749 253.773 33.5749Z" fill="#FFB7B7"/>
<path d="M245.046 4.33749C247.486 2.84988 250.281 2.04516 253.139 2.00749C255.996 1.96982 258.812 2.70056 261.29 4.12334C263.769 5.54611 265.82 7.60864 267.228 10.0953C268.637 12.5819 269.351 15.4013 269.297 18.2587C262.375 20.028 254.998 20.7681 247.18 18.6848L245.393 14.3112L244.339 18.6881C241.948 20.3704 239.639 20.3674 237.414 18.679C237.32 15.8297 237.975 13.0055 239.314 10.4888C240.654 7.97205 242.63 5.85095 245.046 4.33749Z" fill="#2F2E41"/>
<path d="M242.598 281.263H236.908L235.892 275.892L233.291 281.263H218.201C217.478 281.263 216.773 281.032 216.191 280.604C215.608 280.175 215.178 279.571 214.962 278.881C214.747 278.19 214.758 277.449 214.994 276.765C215.23 276.081 215.678 275.491 216.273 275.08L228.324 266.757V261.326L240.999 262.083L242.598 281.263Z" fill="#2F2E41"/>
<path d="M317.216 274.697L311.71 276.132L309.373 271.19L308.211 277.044L293.608 280.85C292.908 281.033 292.168 280.987 291.497 280.719C290.825 280.451 290.256 279.975 289.873 279.362C289.491 278.748 289.315 278.027 289.37 277.306C289.426 276.585 289.711 275.901 290.183 275.353L299.745 264.26L298.375 259.005L310.832 256.54L317.216 274.697Z" fill="#2F2E41"/>
<path d="M308.218 241.602L284.715 193.296L277.337 134.501C282.424 125.054 272.976 105.83 272.976 105.83V97.7588L236.379 104.663C228.894 125.079 225.264 146.707 225.674 168.449L227.149 246.603H226.686C225.919 246.603 225.183 246.908 224.64 247.451C224.097 247.994 223.792 248.73 223.792 249.498C223.792 250.265 224.097 251.002 224.64 251.544C225.183 252.087 225.919 252.392 226.686 252.392H241.158C241.926 252.392 242.662 252.087 243.205 251.544C243.748 251.002 244.053 250.265 244.053 249.498C244.053 248.73 243.748 247.994 243.205 247.451C242.662 246.908 241.926 246.603 241.158 246.603H240.785L251.174 147.177L263.255 196.241L292.447 241.417C291.703 241.475 291.01 241.819 290.513 242.377C290.017 242.936 289.757 243.665 289.787 244.411C289.817 245.157 290.135 245.863 290.674 246.38C291.213 246.896 291.932 247.184 292.679 247.182H307.151C307.824 247.183 308.476 246.949 308.995 246.52C309.514 246.091 309.867 245.495 309.994 244.834C310.12 244.173 310.012 243.488 309.688 242.898C309.364 242.309 308.844 241.85 308.218 241.602Z" fill="#2F2E41"/>
<path d="M276.285 110.779C276.165 110.306 275.898 109.884 275.523 109.573C275.149 109.261 274.685 109.077 274.198 109.045C273.716 103.53 270.529 68.1593 270.407 67.1216L270.403 67.0777L269.48 47.3623C269.446 46.6463 269.15 45.9677 268.648 45.4562C268.146 44.9447 267.473 44.636 266.757 44.5893L261.883 44.2707C261.816 44.2684 261.753 44.2403 261.706 44.1922C261.66 44.1441 261.634 44.0798 261.634 44.0129C261.634 43.4746 261.528 42.9415 261.322 42.4441C261.116 41.9468 260.814 41.4949 260.433 41.1142C260.052 40.7336 259.6 40.4316 259.103 40.2256C258.606 40.0196 258.073 39.9136 257.534 39.9136H243.102C242.167 39.914 241.265 40.2555 240.564 40.8741C239.863 41.4927 239.412 42.3458 239.296 43.2733C239.289 43.3372 239.259 43.3963 239.211 43.4388C239.163 43.4813 239.1 43.5041 239.036 43.5026L239.035 43.5026C237.395 43.4688 235.797 44.024 234.531 45.0675C233.266 46.1109 232.416 47.5734 232.137 49.1897C230.164 60.6695 226.21 86.7243 228.165 101.209C228.845 106.252 228.536 113.836 228.279 118.055C228.253 118.462 228.308 118.871 228.441 119.257C228.573 119.644 228.781 120 229.052 120.306C228.476 120.472 227.988 120.855 227.689 121.374C227.39 121.893 227.305 122.508 227.45 123.089C227.6 123.685 227.981 124.196 228.508 124.511C229.035 124.826 229.666 124.919 230.262 124.769L274.606 113.59C275.201 113.44 275.713 113.059 276.028 112.532C276.343 112.005 276.435 111.374 276.285 110.779Z" fill="#3F3D56"/>
<path d="M202.995 193.665C202.987 192.37 202.521 191.12 201.679 190.137C200.837 189.153 199.674 188.5 198.396 188.292L119.775 175.381C119.021 175.257 118.25 175.291 117.51 175.482L99.0846 180.246L88.5128 182.983L69.003 188.026C67.8252 188.332 66.7823 189.02 66.0377 189.983C65.2931 190.945 64.889 192.128 64.8887 193.344V275.727C64.8945 276.983 65.3285 278.2 66.119 279.176C66.9094 280.152 68.0091 280.829 69.2364 281.096L149.317 280.189C149.693 280.27 150.076 280.31 150.461 280.308C151.021 280.309 151.579 280.224 152.113 280.056L199.691 281.24C200.814 280.89 201.794 280.187 202.485 279.235C203.177 278.284 203.544 277.135 203.531 275.959L202.995 193.665Z" fill="white"/>
<path d="M202.995 193.665C202.987 192.37 202.521 191.12 201.679 190.137C200.837 189.153 199.674 188.5 198.396 188.292L119.775 175.381C119.021 175.257 118.25 175.291 117.51 175.482L99.0846 180.246L88.5128 182.983L69.003 188.026C67.8252 188.332 66.7823 189.02 66.0377 189.983C65.2931 190.945 64.889 192.128 64.8887 193.344V275.727C64.8945 276.983 65.3285 278.2 66.119 279.176C66.9094 280.152 68.0091 280.829 69.2364 281.096L149.317 280.189C149.693 280.27 150.076 280.31 150.461 280.308C151.021 280.309 151.579 280.224 152.113 280.056L199.691 281.24C200.814 280.89 201.794 280.187 202.485 279.235C203.177 278.284 203.544 277.135 203.531 275.959L202.995 193.665ZM199.279 279.931L151.701 281.063C151.023 281.274 150.301 281.309 149.605 281.164L69.5202 279.755C68.6 279.554 67.7757 279.046 67.1833 278.314C66.5909 277.582 66.2658 276.669 66.2616 275.728V193.344C66.2622 192.501 66.5214 191.678 67.0042 190.987C67.4871 190.295 68.1703 189.768 68.9618 189.477C69.0875 189.43 69.2159 189.39 69.3462 189.358L89.9865 184.022L102.192 180.864L117.853 176.814C118.189 176.724 118.535 176.68 118.883 176.681C119.107 176.681 119.33 176.699 119.551 176.736L198.172 189.647C198.804 189.75 199.404 190 199.923 190.376C200.443 190.751 200.868 191.243 201.165 191.811C201.462 192.387 201.618 193.026 201.622 193.674L202.158 275.968C202.168 276.85 201.893 277.712 201.374 278.426C200.856 279.14 200.121 279.668 199.279 279.931Z" fill="#CCCCCC"/>
<path d="M201.165 191.811C201.111 191.846 201.053 191.872 200.991 191.889L177.866 198.14L170.667 200.085L150.191 205.618C150.133 205.633 150.073 205.64 150.013 205.641C149.971 205.641 149.93 205.637 149.889 205.632L67.3282 190.58L67.0536 190.529C66.8747 190.496 66.7165 190.393 66.6134 190.243C66.5103 190.093 66.4707 189.908 66.5034 189.729C66.536 189.55 66.6382 189.391 66.7877 189.288C66.9371 189.184 67.1216 189.143 67.3007 189.175L68.962 189.477L149.985 204.25L167.632 199.481L177.504 196.813L200.272 190.658L200.634 190.562C200.79 190.52 200.956 190.535 201.102 190.604C201.249 190.673 201.366 190.79 201.435 190.937C201.452 190.972 201.466 191.009 201.476 191.047C201.514 191.191 201.504 191.343 201.448 191.481C201.392 191.618 201.292 191.734 201.165 191.811Z" fill="#CCCCCC"/>
<path d="M150.699 280.468C150.323 280.468 150.016 280.165 150.013 282.103L149.326 207.277C149.323 204.582 149.627 204.272 150.006 204.268H150.013C150.389 204.268 150.696 204.571 150.699 207.264L151.386 282.091C151.389 280.154 151.084 280.464 150.705 280.468H150.699Z" fill="#CCCCCC"/>
<path d="M178.06 281.336L170.666 281.415L167.632 199.482L90.2106 184.077C90.1347 184.063 90.0598 184.045 89.9864 184.022C89.3916 183.853 88.8721 183.486 88.5127 182.983L99.0845 180.246L102.192 180.864L175.655 195.477C176.041 195.553 176.406 195.712 176.725 195.943C177.045 196.174 177.31 196.471 177.504 196.813C177.732 197.212 178.055 280.861 178.06 281.336Z" fill="#CCCCCC"/>
<path d="M237.282 43.6992C237.276 42.7235 236.924 41.7815 236.289 41.0403C235.655 40.299 234.778 39.8065 233.815 39.6499L174.563 29.9199C173.995 29.8259 173.413 29.8517 172.855 29.9958L158.969 33.5864L151.002 35.6489L136.298 39.4499C135.41 39.6804 134.624 40.199 134.063 40.9243C133.502 41.6496 133.198 42.5407 133.197 43.4578V92.0215C133.202 92.968 133.529 93.8848 134.124 94.6203C134.72 95.3559 135.549 95.8663 136.474 96.0673L196.827 108.909C197.11 108.969 197.399 108.999 197.689 108.998C198.111 108.999 198.531 108.935 198.934 108.808L234.791 97.485C235.638 97.2209 236.376 96.691 236.898 95.974C237.419 95.257 237.695 94.3911 237.685 93.5047L237.282 43.6992Z" fill="white"/>
<path d="M173.892 33.4861C173.849 33.486 173.806 33.4916 173.764 33.5026L137.207 42.9567C137.096 42.9854 136.998 43.0501 136.927 43.1407C136.857 43.2312 136.819 43.3424 136.819 43.4569V92.0199C136.82 92.1382 136.861 92.2528 136.935 92.3447C137.009 92.4366 137.113 92.5004 137.228 92.5255L197.581 105.366C197.669 105.385 197.759 105.38 197.845 105.354L233.703 94.0305C233.808 93.9975 233.9 93.9313 233.965 93.8417C234.03 93.7522 234.065 93.644 234.063 93.5333L233.661 43.7281C233.661 43.6062 233.617 43.4886 233.537 43.3961C233.458 43.3035 233.349 43.242 233.228 43.2225L173.976 33.4928C173.948 33.4884 173.92 33.4862 173.892 33.4861Z" fill="#8C034E"/>
<path d="M237.282 43.6992C237.276 42.7235 236.924 41.7815 236.289 41.0403C235.655 40.299 234.778 39.8065 233.815 39.6499L174.563 29.9199C173.995 29.8259 173.413 29.8517 172.855 29.9958L158.969 33.5864L151.002 35.6489L136.298 39.4499C135.41 39.6804 134.624 40.199 134.063 40.9243C133.502 41.6496 133.198 42.5407 133.197 43.4578V92.0215C133.202 92.968 133.529 93.8848 134.124 94.6203C134.72 95.3559 135.549 95.8663 136.474 96.0673L196.827 108.909C197.11 108.969 197.399 108.999 197.689 108.998C198.111 108.999 198.531 108.935 198.934 108.808L234.791 97.485C235.638 97.2209 236.376 96.691 236.898 95.974C237.419 95.257 237.695 94.3911 237.685 93.5047L237.282 43.6992ZM234.481 96.4985L198.624 107.822C198.112 107.981 197.569 108.007 197.044 107.898L136.688 95.0568C135.994 94.9056 135.373 94.5225 134.927 93.9706C134.48 93.4188 134.235 92.7313 134.232 92.0215V43.4578C134.232 42.8222 134.428 42.202 134.792 41.6809C135.156 41.1597 135.67 40.7627 136.267 40.5433C136.362 40.5077 136.458 40.4778 136.557 40.4536L152.112 36.4319L161.311 34.052L173.114 30.9995C173.367 30.932 173.628 30.8983 173.89 30.8995C174.059 30.8994 174.227 30.9133 174.394 30.9409L233.646 40.6709C234.123 40.7491 234.575 40.9373 234.967 41.2204C235.358 41.5036 235.678 41.874 235.902 42.3024C236.126 42.7366 236.244 43.2176 236.247 43.7061L236.65 93.5116C236.658 94.1765 236.451 94.8261 236.06 95.3642C235.669 95.9022 235.116 96.2999 234.481 96.4985Z" fill="#3F3D56"/>
<path d="M235.902 42.3021C235.862 42.3286 235.818 42.3484 235.771 42.3607L218.343 47.0722L212.917 48.5381L197.486 52.7081C197.442 52.7189 197.397 52.7247 197.351 52.7254C197.32 52.7248 197.289 52.7225 197.258 52.7185L135.036 41.3743L134.829 41.3363C134.694 41.3111 134.575 41.2335 134.497 41.1204C134.419 41.0074 134.389 40.8681 134.414 40.7331C134.438 40.5981 134.515 40.4784 134.628 40.4001C134.741 40.3218 134.88 40.2914 135.015 40.3154L136.267 40.543L197.331 51.6768L210.63 48.0828L218.07 46.072L235.23 41.4329L235.502 41.3605C235.62 41.3294 235.745 41.3407 235.855 41.3924C235.965 41.4441 236.054 41.5329 236.106 41.6433C236.119 41.6697 236.129 41.6974 236.137 41.7261C236.165 41.8345 236.158 41.9493 236.115 42.0531C236.073 42.157 235.998 42.2444 235.902 42.3021Z" fill="#3F3D56"/>
<path d="M197.869 109.119C197.732 109.119 197.601 109.065 197.505 108.969C197.408 108.873 197.353 108.742 197.351 108.606L196.834 52.2128C196.833 52.0756 196.886 51.9435 196.982 51.8456C197.078 51.7477 197.209 51.692 197.347 51.6907H197.351C197.488 51.6907 197.619 51.7445 197.716 51.8405C197.812 51.9365 197.867 52.0669 197.869 52.2033L198.386 108.597C198.387 108.734 198.334 108.866 198.238 108.964C198.142 109.062 198.011 109.117 197.873 109.119H197.869Z" fill="#3F3D56"/>
<path d="M218.343 102.259L212.917 103.725L210.631 48.0833L152.282 36.4736C152.224 36.4635 152.168 36.4496 152.113 36.4322C151.664 36.3045 151.273 36.0285 151.002 35.6492L158.969 33.5867L161.311 34.0523L216.677 45.0654C216.968 45.1229 217.243 45.2426 217.484 45.4165C217.724 45.5903 217.924 45.8141 218.07 46.0725C218.243 46.3726 218.339 101.9 218.343 102.259Z" fill="#3F3D56"/>
<path d="M215.912 70.5339C216.189 70.7712 216.447 71.0301 216.684 71.308L249.186 67.5122L252.347 60.218L263.979 63.5497L259.638 77.0064C259.287 78.0935 258.593 79.0375 257.66 79.6967C256.727 80.3559 255.606 80.6947 254.464 80.6622L217.251 79.6043C216.484 80.7833 215.376 81.7009 214.075 82.235C212.774 82.769 211.341 82.8943 209.967 82.5941C208.592 82.2939 207.342 81.5825 206.382 80.5544C205.422 79.5264 204.798 78.2305 204.593 76.839C204.387 75.4476 204.61 74.0266 205.232 72.765C205.854 71.5034 206.845 70.4611 208.074 69.7766C209.303 69.0922 210.711 68.798 212.111 68.9333C213.511 69.0686 214.837 69.6269 215.912 70.5339Z" fill="#FFB6B6"/>
<path d="M248.425 65.8294C248.248 65.441 248.157 65.0191 248.158 64.5924C248.159 64.1658 248.253 63.7444 248.431 63.357L254.676 49.826C255.29 47.7308 256.709 45.9644 258.623 44.914C260.537 43.8637 262.789 43.6152 264.886 44.223C266.983 44.8309 268.753 46.2454 269.808 48.1565C270.864 50.0676 271.119 52.3192 270.516 54.4177L268.46 69.2264C268.401 69.649 268.252 70.054 268.022 70.4138C267.793 70.7736 267.489 71.0797 267.131 71.3114C266.772 71.543 266.368 71.6947 265.946 71.756C265.524 71.8174 265.093 71.7871 264.684 71.6671L250.293 67.4498C249.883 67.3299 249.504 67.1232 249.182 66.8435C248.859 66.5639 248.601 66.2179 248.425 65.8294Z" fill="#3F3D56"/>
<path d="M357.45 281.939H0.689216C0.506757 281.939 0.331948 281.866 0.203117 281.736C0.0742854 281.607 0.00195312 281.432 0.00195312 281.25C0.00195312 281.067 0.0742854 280.892 0.203117 280.763C0.331948 280.634 0.506757 280.561 0.689216 280.561H357.45C357.633 280.561 357.809 280.633 357.938 280.762C358.067 280.892 358.14 281.067 358.14 281.25C358.14 281.433 358.067 281.608 357.938 281.737C357.809 281.866 357.633 281.939 357.45 281.939Z" fill="#CACACA"/>
<path d="M69.5311 208.7C80.9802 208.7 90.2615 199.419 90.2615 187.97C90.2615 176.521 80.9802 167.24 69.5311 167.24C58.0821 167.24 48.8008 176.521 48.8008 187.97C48.8008 199.419 58.0821 208.7 69.5311 208.7Z" fill="#8C034E"/>
<path d="M66.7035 198.759C66.3455 198.759 65.9924 198.676 65.6722 198.516C65.3521 198.355 65.0736 198.123 64.8589 197.836L59.2033 190.296C58.8364 189.806 58.6789 189.191 58.7654 188.586C58.8519 187.981 59.1754 187.434 59.6646 187.067C60.1539 186.7 60.7689 186.543 61.3743 186.629C61.9797 186.716 62.526 187.039 62.8929 187.529L66.5929 192.462L76.096 178.207C76.2636 177.954 76.4794 177.737 76.7311 177.567C76.9828 177.398 77.2655 177.28 77.563 177.22C77.8604 177.16 78.1668 177.159 78.4645 177.218C78.7622 177.276 79.0454 177.393 79.2979 177.562C79.5504 177.73 79.7671 177.946 79.9358 178.199C80.1044 178.451 80.2216 178.734 80.2807 179.032C80.3397 179.329 80.3394 179.636 80.2799 179.933C80.2203 180.231 80.1025 180.513 79.9334 180.765L68.6224 197.732C68.4178 198.039 68.1426 198.292 67.8198 198.471C67.4971 198.649 67.1363 198.748 66.7676 198.758C66.7463 198.759 66.7249 198.759 66.7035 198.759Z" fill="white"/>
<path d="M157.8 77.8602C157.736 77.8601 157.672 77.8529 157.609 77.8387L139.664 73.7866C139.439 73.7356 139.244 73.5977 139.121 73.4031C138.999 73.2085 138.958 72.9731 139.009 72.7486C139.059 72.5241 139.197 72.3289 139.391 72.2059C139.586 72.0828 139.821 72.042 140.046 72.0923L157.991 76.1445C158.199 76.1916 158.383 76.3138 158.507 76.4877C158.631 76.6617 158.686 76.8752 158.663 77.0875C158.639 77.2998 158.538 77.496 158.379 77.6385C158.22 77.781 158.014 77.86 157.8 77.8602Z" fill="white"/>
<path d="M88.7356 240.951C88.6725 240.964 88.6081 240.97 88.5436 240.969L70.1491 240.66C69.9191 240.655 69.7002 240.56 69.5405 240.394C69.3807 240.229 69.2932 240.007 69.297 239.777C69.3008 239.547 69.3957 239.328 69.5609 239.168C69.726 239.008 69.9479 238.92 70.1779 238.923L88.5725 239.233C88.786 239.236 88.9907 239.319 89.1475 239.464C89.3043 239.609 89.4021 239.806 89.4223 240.019C89.4425 240.232 89.3836 240.444 89.257 240.616C89.1303 240.788 88.9447 240.907 88.7356 240.951Z" fill="#E6E6E6"/>
<path d="M95.1038 250.792C95.0406 250.805 94.9763 250.811 94.9118 250.81L76.5172 250.501C76.2873 250.496 76.0684 250.401 75.9087 250.235C75.7489 250.07 75.6613 249.848 75.6652 249.618C75.669 249.388 75.7639 249.169 75.929 249.009C76.0942 248.849 76.3161 248.761 76.5461 248.764L94.9406 249.074C95.1542 249.077 95.3589 249.16 95.5157 249.305C95.6725 249.45 95.7703 249.647 95.7905 249.86C95.8107 250.073 95.7518 250.285 95.6251 250.457C95.4984 250.629 95.3128 250.749 95.1038 250.792Z" fill="#E6E6E6"/>
</g>
<defs>
<clipPath id="clip0_0_5675">
<rect width="358.14" height="282.103" fill="white" transform="translate(0 -0.000244141)"/>
</clipPath>
</defs>
</svg>
