<svg width="126" height="109" viewBox="0 0 126 109" fill="none" xmlns="http://www.w3.org/2000/svg">
<g clip-path="url(#clip0_0_6029)">
<path d="M6.5318 37.1437L0.504614 33.7614C0.423314 30.1426 1.22984 26.5588 2.85417 23.321C4.24376 29.6051 11.5567 32.5948 14.9308 38.0815C15.97 39.8008 16.6076 41.7311 16.7963 43.7292C16.985 45.7274 16.7199 47.7423 16.0208 49.6245L16.4172 54.4967C13.3022 53.5671 10.4264 51.9757 7.98808 49.8321C5.54975 47.6885 3.60682 45.0437 2.29317 42.08C1.57274 40.41 1.06625 38.6563 0.785643 36.8603C3.59578 37.1582 6.5318 37.1437 6.5318 37.1437Z" fill="#F2F2F2"/>
<path d="M114.881 98.6778L115.066 94.5374C116.992 93.5113 119.141 92.9693 121.326 92.9585C118.319 95.4077 118.695 100.129 116.656 103.422C116.013 104.445 115.146 105.31 114.122 105.953C113.097 106.597 111.94 107.002 110.736 107.139L108.22 108.674C107.875 106.757 107.951 104.787 108.443 102.902C108.936 101.016 109.832 99.2593 111.072 97.7523C111.775 96.9137 112.582 96.1668 113.473 95.5291C114.076 97.1122 114.881 98.6778 114.881 98.6778Z" fill="#E6E6E6"/>
<path d="M108.397 106.543L106.119 106.543L105.035 97.7878L108.398 97.788L108.397 106.543Z" fill="#FFB6B6"/>
<path d="M108.978 108.744L101.632 108.744V108.651C101.632 107.896 101.933 107.171 102.469 106.637C103.006 106.103 103.733 105.802 104.491 105.802H104.491L105.833 104.788L108.337 105.803L108.978 105.803L108.978 108.744Z" fill="#2F2E41"/>
<path d="M97.8132 106.543L95.535 106.543L94.4512 97.7878L97.8137 97.788L97.8132 106.543Z" fill="#FFB6B6"/>
<path d="M98.3939 108.744L91.0479 108.744V108.651C91.0479 107.896 91.3492 107.171 91.8854 106.637C92.4216 106.103 93.1488 105.802 93.9071 105.802H93.9073L95.2492 104.788L97.7528 105.803L98.3941 105.803L98.3939 108.744Z" fill="#2F2E41"/>
<path d="M96.8264 58.6768L111.645 59.0459C114.46 60.5689 114.502 63.8654 113.58 67.7792C113.58 67.7792 113.892 70.1055 113.269 70.7258C112.646 71.3462 112.335 71.3462 112.646 72.4317C112.958 73.5173 111.313 75.2904 111.513 75.4895C111.712 75.6885 112.179 76.7741 112.179 76.7741L110.623 85.6139C110.623 85.6139 109.533 100.967 109.222 101.277C108.911 101.588 108.599 101.277 108.911 102.053C109.222 102.828 109.533 102.518 109.222 102.828C108.946 103.124 108.686 103.435 108.444 103.759H104.68C104.68 103.759 104.397 102.208 104.397 102.053C104.397 101.898 104.085 100.967 104.085 100.812C104.085 100.657 104.361 100.383 104.361 100.383C104.456 100.068 104.52 99.7439 104.552 99.4164C104.552 99.1062 105.486 87.1647 105.486 87.1647L103.618 71.6563L99.1045 86.8546C99.1045 86.8546 99.1045 100.192 98.7932 100.502C98.4819 100.812 98.4819 100.657 98.6376 101.277C98.7932 101.898 99.4158 101.743 98.9489 102.208C98.4819 102.673 98.3262 101.898 98.4819 102.673L98.6376 103.449L93.968 103.515C93.968 103.515 93.3454 102.208 93.6567 101.743C93.968 101.277 93.9493 101.404 93.5695 100.643C93.1897 99.8816 93.034 99.7265 93.1897 99.5714C93.3453 99.4164 93.3453 98.5915 93.3453 98.5915L94.1236 83.7529C94.1236 83.7529 94.2793 68.0894 94.2793 67.6241C94.291 67.3847 94.2467 67.1459 94.15 66.9265V66.2949L94.7462 64.0572L96.8264 58.6768Z" fill="#69687F"/>
<path d="M105.728 27.976C108.271 27.976 110.333 25.9221 110.333 23.3885C110.333 20.8549 108.271 18.801 105.728 18.801C103.185 18.801 101.124 20.8549 101.124 23.3885C101.124 25.9221 103.185 27.976 105.728 27.976Z" fill="#FFB6B6"/>
<path d="M103.427 31.008C102.435 31.5955 101.841 32.6751 101.501 33.7736C100.87 35.8074 100.49 37.9102 100.37 40.0355L100.01 46.3982L95.5547 59.9462C99.4163 63.2018 113.932 60.6861 113.932 60.6861C113.932 60.6861 114.377 60.5381 113.932 60.0942C113.486 59.6502 113.052 60.0436 113.498 59.5996C113.944 59.1557 113.636 59.6502 113.488 59.2063C113.339 58.7623 113.488 59.0583 113.636 58.9103C113.785 58.7623 112.487 57.4305 112.487 57.4305L113.675 49.6538L115.16 33.9676C113.378 31.7479 109.793 30.4393 109.793 30.4393L108.867 28.7783L104.236 29.1474L103.427 31.008Z" fill="#130160"/>
<path d="M102.795 20.6963C102.973 20.6976 103.151 20.7208 103.323 20.7653C103.663 20.8467 104.009 20.9044 104.357 20.9379C105.423 21.0379 106.424 21.4908 107.201 22.2243C107.979 22.9579 108.487 23.9298 108.644 24.9849C108.912 24.7525 109.521 24.325 110.02 24.7223C110.027 24.7286 110.032 24.7318 110.049 24.7235C110.381 24.5669 110.969 22.639 110.987 20.9415C110.996 20.0405 110.854 18.89 110.123 18.5256L110.084 18.5064L110.074 18.4647C110.025 18.262 109.479 17.9161 108.53 17.6468C106.806 17.1575 104.236 16.2042 102.788 17.6071C102.679 18.08 102.323 19.0921 101.963 19.2068C101.564 19.3338 101.22 19.4434 101.165 19.9305C101.12 20.6238 101.123 21.3194 101.175 22.0122C101.31 21.5883 101.576 21.2172 101.933 20.9513C102.188 20.7806 102.489 20.6916 102.795 20.6963Z" fill="#2F2E41"/>
<path d="M94.2253 46.044L101.746 41.2448L97.9583 36.2275L94.2177 40.812L82.563 41.5242C82.2564 41.2223 81.8683 41.0157 81.446 40.9298C81.0237 40.8438 80.5854 40.8822 80.1846 41.0401C79.7837 41.198 79.4377 41.4688 79.1886 41.8193C78.9396 42.1698 78.7982 42.5849 78.7819 43.0141C78.7655 43.4432 78.8748 43.8678 79.0965 44.2362C79.3182 44.6045 79.6426 44.9006 80.0302 45.0884C80.4179 45.2762 80.852 45.3475 81.2796 45.2937C81.7073 45.2399 82.11 45.0633 82.4386 44.7854L94.2253 46.044Z" fill="#FFB6B6"/>
<path d="M108.727 34.5462C109.163 37.1783 100.92 42.2046 100.92 42.2046C100.92 41.5868 95.9996 46.2507 95.7776 45.7383C95.1464 44.2821 94.7026 40.833 93.8207 40.2809C93.3163 39.9652 96.8584 36.9993 96.8584 36.9993C96.8584 36.9993 98.7125 35.1383 101.146 32.7908C101.821 32.1145 102.657 31.6194 103.577 31.3517C104.496 31.084 105.468 31.0523 106.403 31.2597C106.403 31.2597 108.29 31.9141 108.727 34.5462Z" fill="#130160"/>
<path d="M124.229 47.3037L119.254 39.9133L114.3 43.793L118.979 47.422L119.941 59.0165C119.644 59.3283 119.445 59.7192 119.368 60.1417C119.291 60.5642 119.338 61 119.505 61.3959C119.672 61.7919 119.951 62.1308 120.308 62.3715C120.665 62.6122 121.085 62.7442 121.516 62.7514C121.947 62.7586 122.37 62.6407 122.735 62.4121C123.1 62.1835 123.391 61.8541 123.571 61.4639C123.751 61.0738 123.813 60.6399 123.75 60.215C123.687 59.7902 123.502 59.3928 123.216 59.0713L124.229 47.3037Z" fill="#FFB6B6"/>
<path d="M112.385 33.1015C115.017 32.6109 120.235 40.7159 120.235 40.7159C119.615 40.7291 124.399 45.5313 123.89 45.7634C122.442 46.423 118.99 46.9381 118.455 47.8283C118.149 48.3374 115.098 44.8718 115.098 44.8718C115.098 44.8718 113.191 43.0643 110.784 40.6903C110.091 40.0317 109.576 39.2091 109.288 38.2992C109 37.3892 108.948 36.4213 109.136 35.4858C109.136 35.4858 109.753 33.592 112.385 33.1015Z" fill="#130160"/>
<path d="M125.5 108.78C125.5 108.809 125.495 108.838 125.483 108.865C125.472 108.891 125.456 108.916 125.436 108.936C125.415 108.956 125.391 108.973 125.364 108.984C125.337 108.995 125.309 109 125.28 109H73.3601C73.3016 109 73.2455 108.977 73.2042 108.936C73.1629 108.895 73.1396 108.839 73.1396 108.78C73.1396 108.722 73.1629 108.666 73.2042 108.625C73.2455 108.584 73.3016 108.561 73.3601 108.561H125.28C125.309 108.561 125.337 108.566 125.364 108.577C125.391 108.588 125.415 108.605 125.436 108.625C125.456 108.645 125.472 108.67 125.483 108.696C125.495 108.723 125.5 108.752 125.5 108.78Z" fill="#130160"/>
<path d="M77.4023 42.2256H14.3909C13.4065 42.2267 12.4626 42.6168 11.7665 43.3104C11.0704 44.004 10.6788 44.9443 10.6777 45.9252V85.0125C10.6789 85.9934 11.0704 86.9337 11.7665 87.6273C12.4626 88.3209 13.4065 88.711 14.3909 88.7121H77.4023C78.3867 88.711 79.3306 88.3209 80.0267 87.6273C80.7228 86.9338 81.1144 85.9934 81.1155 85.0125V45.9252C81.1144 44.9443 80.7229 44.004 80.0267 43.3104C79.3306 42.6168 78.3868 42.2267 77.4023 42.2256Z" fill="#8C034E"/>
<path d="M77.4023 42.2256H14.3909C13.4065 42.2267 12.4626 42.6168 11.7665 43.3104C11.0704 44.004 10.6788 44.9443 10.6777 45.9252V85.0125C10.6789 85.9934 11.0704 86.9337 11.7665 87.6273C12.4626 88.3209 13.4065 88.711 14.3909 88.7121H77.4023C78.3867 88.711 79.3306 88.3209 80.0267 87.6273C80.7228 86.9338 81.1144 85.9934 81.1155 85.0125V45.9252C81.1144 44.9443 80.7229 44.004 80.0267 43.3104C79.3306 42.6168 78.3868 42.2267 77.4023 42.2256ZM78.6209 70.3025C78.6058 74.2818 77.026 78.0967 74.2204 80.9289C71.4148 83.761 67.6068 85.3848 63.6134 85.4517C57.2198 85.5347 67.151 85.567 59.4398 85.567C41.8068 85.567 23.4204 85.3991 16.5602 85.2903C15.6576 85.2717 14.7981 84.9023 14.1651 84.261C13.5321 83.6197 13.1758 82.7572 13.1724 81.8577V45.9281C13.1727 45.606 13.3011 45.2972 13.5294 45.0691C13.7577 44.8411 14.0674 44.7124 14.3907 44.7113H77.3998C77.723 44.7116 78.0329 44.8395 78.2617 45.0669C78.4906 45.2944 78.6197 45.6028 78.6209 45.9248V70.3025Z" fill="#130160"/>
<path d="M69.6458 19.7178H21.6377C21.2129 19.7184 20.7987 19.8496 20.4516 20.0935C20.1044 20.3374 19.8413 20.6821 19.6981 21.0805L12.2836 41.8064C12.1729 42.1158 12.1384 42.4471 12.183 42.7725C12.2275 43.0979 12.3498 43.4079 12.5396 43.6764C12.7293 43.9449 12.981 44.1641 13.2735 44.3156C13.566 44.4671 13.8907 44.5464 14.2203 44.5469L78.607 44.6607H78.6098C78.9506 44.6607 79.286 44.5764 79.586 44.4155C79.886 44.2545 80.1413 44.0219 80.3288 43.7385C80.5164 43.455 80.6305 43.1297 80.6608 42.7915C80.6911 42.4534 80.6367 42.113 80.5025 41.8009L80.3902 41.8488L80.5025 41.8009L71.5384 20.9612C71.3799 20.592 71.116 20.2773 70.7796 20.0562C70.4431 19.8351 70.0488 19.7175 69.6458 19.7178Z" fill="#130160"/>
<path d="M80.6698 42.251C80.6696 42.5289 80.6129 42.8039 80.5031 43.0594L71.5396 59.1012C71.38 59.4696 71.1157 59.7835 70.7794 60.0042C70.443 60.2249 70.0492 60.3428 69.6465 60.3433H21.6391C21.2142 60.3429 20.7997 60.2118 20.4523 59.9681C20.1049 59.7243 19.8414 59.3797 19.6978 58.9812L12.2847 43.0538C12.1938 42.8001 12.1541 42.531 12.1676 42.2619C12.1812 41.9928 12.2479 41.7291 12.3638 41.4857C12.4798 41.2423 12.6427 41.0241 12.8434 40.8434C13.044 40.6628 13.2784 40.5234 13.5332 40.4331C13.7536 40.3538 13.9861 40.3132 14.2204 40.3132L22.0855 40.2984L25.2956 40.2929L67.5366 40.219L70.7486 40.2135L78.6081 40.1987H78.61C79.1562 40.1988 79.6801 40.4151 80.0664 40.7999C80.4527 41.1848 80.6697 41.7067 80.6698 42.251Z" fill="#130160"/>
<path d="M19.1153 71.5454C20.0673 71.5454 33.1402 72.3414 33.1402 73.29C33.1402 74.2385 20.0673 74.9803 19.1153 74.9803C18.6582 74.9803 18.2197 74.7993 17.8965 74.4772C17.5732 74.1552 17.3916 73.7183 17.3916 73.2628C17.3916 72.8073 17.5732 72.3705 17.8965 72.0484C18.2197 71.7264 18.6582 71.5454 19.1153 71.5454Z" fill="#130160"/>
<path d="M66.6562 7.10938H26.1768C25.092 7.11062 24.0519 7.54055 23.2848 8.30485C22.5177 9.06914 22.0862 10.1054 22.085 11.1863V60.3434H69.6459C70.0365 60.3447 70.4191 60.2338 70.7481 60.0242V11.1863C70.7468 10.1054 70.3153 9.06915 69.5482 8.30485C68.7811 7.54056 67.7411 7.11063 66.6562 7.10938Z" fill="#E6E6E6"/>
<path d="M51.2056 10.4148H29.0219C28.034 10.4158 27.0869 10.807 26.3882 11.5028C25.6896 12.1986 25.2964 13.1421 25.2949 14.1263V60.3434H67.5359V26.6855C67.5309 22.3718 65.8088 18.2361 62.7474 15.1859C59.6859 12.1356 55.5351 10.4198 51.2056 10.4148Z" fill="white"/>
<path d="M60.3399 56.2388H32.4916C32.2509 56.2388 32.02 56.334 31.8498 56.5036C31.6796 56.6732 31.584 56.9033 31.584 57.1431C31.584 57.383 31.6796 57.613 31.8498 57.7826C32.02 57.9522 32.2509 58.0474 32.4916 58.0474H60.3399C60.5806 58.0474 60.8115 57.9522 60.9817 57.7826C61.1519 57.613 61.2475 57.383 61.2475 57.1431C61.2475 56.9033 61.1519 56.6732 60.9817 56.5036C60.8115 56.334 60.5806 56.2388 60.3399 56.2388Z" fill="#E4E4E4"/>
<path d="M60.3398 52.6621H32.4916C32.2506 52.6621 32.0195 52.7575 31.8491 52.9273C31.6787 53.097 31.583 53.3273 31.583 53.5674C31.583 53.8075 31.6787 54.0377 31.8491 54.2075C32.0195 54.3773 32.2506 54.4726 32.4916 54.4726H60.3398C60.5808 54.4726 60.8119 54.3773 60.9823 54.2075C61.1527 54.0377 61.2484 53.8075 61.2484 53.5674C61.2484 53.3273 61.1527 53.097 60.9823 52.9273C60.8119 52.7575 60.5808 52.6621 60.3398 52.6621Z" fill="#E4E4E4"/>
<path d="M44.5634 49.0872H32.4916C32.2509 49.0872 32.02 49.1824 31.8498 49.352C31.6796 49.5216 31.584 49.7516 31.584 49.9915C31.584 50.2313 31.6796 50.4614 31.8498 50.631C32.02 50.8005 32.2509 50.8958 32.4916 50.8958H44.5634C44.8041 50.8958 45.035 50.8005 45.2052 50.631C45.3754 50.4614 45.471 50.2313 45.471 49.9915C45.471 49.7516 45.3754 49.5216 45.2052 49.352C45.035 49.1824 44.8041 49.0872 44.5634 49.0872Z" fill="#E4E4E4"/>
<path d="M60.3398 41.5977H32.4916C32.2506 41.5977 32.0195 41.693 31.8491 41.8628C31.6787 42.0326 31.583 42.2628 31.583 42.5029C31.583 42.743 31.6787 42.9733 31.8491 43.143C32.0195 43.3128 32.2506 43.4082 32.4916 43.4082H60.3398C60.5808 43.4082 60.8119 43.3128 60.9823 43.143C61.1527 42.9733 61.2484 42.743 61.2484 42.5029C61.2484 42.2628 61.1527 42.0326 60.9823 41.8628C60.8119 41.693 60.5808 41.5977 60.3398 41.5977Z" fill="#E4E4E4"/>
<path d="M60.3399 38.0229H32.4916C32.2509 38.0229 32.02 38.1182 31.8498 38.2878C31.6796 38.4574 31.584 38.6874 31.584 38.9273C31.584 39.1671 31.6796 39.3971 31.8498 39.5667C32.02 39.7363 32.2509 39.8316 32.4916 39.8316H60.3399C60.5806 39.8316 60.8115 39.7363 60.9817 39.5667C61.1519 39.3971 61.2475 39.1671 61.2475 38.9273C61.2475 38.6874 61.1519 38.4574 60.9817 38.2878C60.8115 38.1182 60.5806 38.0229 60.3399 38.0229Z" fill="#E4E4E4"/>
<path d="M44.5634 34.446H32.4916C32.2506 34.446 32.0195 34.5414 31.8491 34.7112C31.6787 34.881 31.583 35.1112 31.583 35.3513C31.583 35.5914 31.6787 35.8216 31.8491 35.9914C32.0195 36.1612 32.2506 36.2566 32.4916 36.2566H44.5634C44.8043 36.2566 45.0354 36.1612 45.2058 35.9914C45.3762 35.8216 45.4719 35.5914 45.4719 35.3513C45.4719 35.1112 45.3762 34.881 45.2058 34.7112C45.0354 34.5414 44.8043 34.446 44.5634 34.446Z" fill="#E4E4E4"/>
<path d="M60.3398 26.9568H32.4916C32.2506 26.9568 32.0195 27.0522 31.8491 27.2219C31.6787 27.3917 31.583 27.622 31.583 27.862C31.583 28.1021 31.6787 28.3324 31.8491 28.5022C32.0195 28.6719 32.2506 28.7673 32.4916 28.7673H60.3398C60.5808 28.7673 60.8119 28.6719 60.9823 28.5022C61.1527 28.3324 61.2484 28.1021 61.2484 27.862C61.2484 27.622 61.1527 27.3917 60.9823 27.2219C60.8119 27.0522 60.5808 26.9568 60.3398 26.9568Z" fill="#130160"/>
<path d="M60.3398 23.3818H32.4916C32.2506 23.3818 32.0195 23.4772 31.8491 23.647C31.6787 23.8168 31.583 24.047 31.583 24.2871C31.583 24.5272 31.6787 24.7574 31.8491 24.9272C32.0195 25.097 32.2506 25.1924 32.4916 25.1924H60.3398C60.5808 25.1924 60.8119 25.097 60.9823 24.9272C61.1527 24.7574 61.2484 24.5272 61.2484 24.2871C61.2484 24.047 61.1527 23.8168 60.9823 23.647C60.8119 23.4772 60.5808 23.3818 60.3398 23.3818Z" fill="#130160"/>
<path d="M44.5634 19.8052H32.4916C32.2506 19.8052 32.0195 19.9006 31.8491 20.0703C31.6787 20.2401 31.583 20.4703 31.583 20.7104C31.583 20.9505 31.6787 21.1808 31.8491 21.3506C32.0195 21.5203 32.2506 21.6157 32.4916 21.6157H44.5634C44.8043 21.6157 45.0354 21.5203 45.2058 21.3506C45.3762 21.1808 45.4719 20.9505 45.4719 20.7104C45.4719 20.4703 45.3762 20.2401 45.2058 20.0703C45.0354 19.9006 44.8043 19.8052 44.5634 19.8052Z" fill="#130160"/>
<path d="M69.2302 14.0865C73.1344 14.0865 76.2993 10.9332 76.2993 7.04328C76.2993 3.15338 73.1344 0 69.2302 0C65.3261 0 62.1611 3.15338 62.1611 7.04328C62.1611 10.9332 65.3261 14.0865 69.2302 14.0865Z" fill="#8C034E"/>
<path d="M68.2659 10.709C68.1438 10.709 68.0234 10.6806 67.9143 10.6262C67.8051 10.5718 67.7101 10.4928 67.6369 10.3955L65.7084 7.83345C65.6461 7.75117 65.6007 7.65745 65.5748 7.55766C65.5489 7.45787 65.5431 7.35397 65.5576 7.25192C65.5721 7.14988 65.6066 7.05168 65.6593 6.96296C65.7119 6.87424 65.7816 6.79674 65.8644 6.73491C65.9471 6.67307 66.0413 6.62811 66.1415 6.6026C66.2418 6.5771 66.346 6.57154 66.4484 6.58626C66.5508 6.60098 66.6493 6.63568 66.7382 6.68838C66.8271 6.74107 66.9047 6.81073 66.9665 6.89335L68.2282 8.56939L71.4688 3.72633C71.5845 3.55343 71.7644 3.43341 71.9689 3.39266C72.1734 3.35191 72.3858 3.39377 72.5593 3.50903C72.7328 3.62429 72.8533 3.80352 72.8942 4.00727C72.9351 4.21103 72.8931 4.42263 72.7774 4.59552L68.9203 10.3601C68.8505 10.4643 68.7566 10.5504 68.6466 10.611C68.5366 10.6717 68.4135 10.7052 68.2878 10.7087C68.2805 10.7088 68.2732 10.709 68.2659 10.709Z" fill="white"/>
</g>
<defs>
<clipPath id="clip0_0_6029">
<rect width="125" height="109" fill="white" transform="translate(0.5)"/>
</clipPath>
</defs>
</svg>
