<svg width="262" height="199" viewBox="0 0 262 199" fill="none" xmlns="http://www.w3.org/2000/svg">
<g clip-path="url(#clip0_401_13232)">
<path d="M158.495 59.9678C158.82 59.9828 159.142 59.8974 159.417 59.7232C159.692 59.5491 159.907 59.2946 160.033 58.9943C160.158 58.6939 160.188 58.3622 160.119 58.0441C160.05 57.726 159.885 57.4369 159.646 57.2159C159.606 57.0568 159.577 56.9425 159.537 56.7834C159.551 56.7487 159.565 56.7141 159.58 56.6795C161.042 53.194 165.996 53.2181 167.445 56.7088C168.731 59.8069 170.369 62.9103 170.772 66.1861C170.95 67.6341 170.875 69.1019 170.551 70.5242C173.572 63.9336 175.141 56.7705 175.151 49.5204C175.152 47.701 175.051 45.8831 174.848 44.0751C174.681 42.5928 174.449 41.1212 174.152 39.66C172.533 31.7322 169.056 24.3016 164.008 17.9783C161.564 16.645 159.588 14.5947 158.345 12.1037C157.895 11.2083 157.577 10.2524 157.401 9.26586C157.677 9.30202 158.44 5.10391 158.232 4.84633C158.616 4.26341 159.304 3.97365 159.724 3.40483C161.81 0.57588 164.685 1.06983 166.186 4.91415C169.392 6.53219 169.423 9.2156 167.455 11.7964C166.204 13.4384 166.032 15.6601 164.934 17.4179C165.047 17.5626 165.164 17.7027 165.277 17.8473C167.343 20.5028 169.142 23.3543 170.651 26.361C170.224 23.0263 170.855 19.0089 171.929 16.4193C173.152 13.4687 175.445 10.9837 177.464 8.43284C179.889 5.36893 184.861 6.70608 185.289 10.5901C185.293 10.6277 185.297 10.6653 185.301 10.7029C185.001 10.872 184.707 11.0516 184.42 11.2415C184.059 11.4826 183.78 11.827 183.618 12.2297C183.456 12.6323 183.42 13.0745 183.514 13.4981C183.608 13.9218 183.827 14.3072 184.144 14.6039C184.461 14.9005 184.859 15.0947 185.288 15.1608L185.332 15.1675C185.225 16.2483 185.037 17.3193 184.767 18.3715C187.357 28.3874 181.766 32.0355 173.782 32.1993C173.606 32.2897 173.434 32.3801 173.258 32.466C174.774 36.7622 175.725 41.2372 176.087 45.7787C176.291 48.458 176.279 51.1495 176.05 53.8268L176.064 53.7319C176.642 50.7548 178.231 48.0684 180.56 46.1266C184.02 43.2842 188.909 42.2375 192.642 39.9528C194.439 38.853 196.742 40.2742 196.428 42.3575C196.423 42.3908 196.418 42.424 196.413 42.4573C195.856 42.6839 195.314 42.945 194.79 43.239C194.491 43.4082 194.197 43.5878 193.91 43.7777C193.549 44.0188 193.269 44.3632 193.108 44.7659C192.946 45.1685 192.91 45.6106 193.004 46.0343C193.097 46.4579 193.317 46.8434 193.634 47.14C193.95 47.4367 194.349 47.6308 194.778 47.697L194.822 47.7037C194.854 47.7082 194.881 47.7128 194.912 47.7173C193.962 49.9875 192.627 52.0771 190.967 53.8946C189.348 62.6382 182.393 63.4678 174.952 60.9215H174.948C174.131 64.4689 172.949 67.9218 171.419 71.2247H158.811C158.766 71.0846 158.725 70.94 158.684 70.7999C159.851 70.8732 161.023 70.8034 162.173 70.592C161.237 69.4442 160.302 68.2873 159.367 67.1396C159.346 67.1181 159.326 67.0955 159.308 67.0718C158.833 66.4843 158.354 65.9014 157.88 65.3139L157.88 65.3132C157.854 63.5125 158.061 61.716 158.494 59.968L158.495 59.9678Z" fill="#F2F2F2"/>
<path d="M198.974 27.7018C196.63 19.1549 215.538 11.8256 220.503 18.7085C221.193 17.73 223.745 17.1356 224.916 17.4358C226.086 17.736 227.071 18.4864 228.031 19.2129C229.352 20.2274 230.721 21.2781 231.531 22.7369C232.348 24.1898 232.474 26.1709 231.375 27.4317C230.505 28.4342 227.935 29.0826 226.627 29.3468C225.714 29.5329 224.946 29.683 224.285 29.791C223.685 28.9268 223.409 27.8789 223.505 26.8313C223.06 27.1312 222.688 27.5257 222.414 27.9865C222.14 28.4474 221.971 28.9632 221.92 29.4969C221.902 29.719 229.298 56.9329 229.298 56.9329C228.409 57.4387 227.475 57.8588 226.506 58.1876C224.591 55.2603 223.124 52.0632 222.154 48.7021C221.931 50.9496 221.959 53.2149 222.238 55.4561C222.386 56.7128 222.599 57.9612 222.874 59.1962C214.085 61.0934 200.865 60.469 195.114 52.4003C195.113 52.3669 195.112 52.3335 195.111 52.3001C195.107 51.9816 194.992 51.6746 194.786 51.4316C194.58 51.1886 194.296 51.0248 193.982 50.9682C193.669 50.9116 193.345 50.9658 193.068 51.1214C192.79 51.277 192.574 51.5244 192.459 51.8213C192.319 52.1772 192.191 52.4854 192.076 52.7305C190.401 46.7389 192.569 39.8049 198.974 27.7018Z" fill="#2F2E41"/>
<path d="M184.018 170.995V171.275C184.007 171.182 184.007 171.088 184.018 170.995Z" fill="#2F2E41"/>
<path d="M192.626 122.625C192.849 122.564 193.077 122.52 193.307 122.492C193.043 122.535 192.816 122.579 192.626 122.625Z" fill="#2F2E41"/>
<path d="M192.426 122.675C192.486 122.658 192.553 122.641 192.625 122.625C192.558 122.642 192.494 122.655 192.426 122.675Z" fill="#2F2E41"/>
<path d="M256.017 199.002H223.8C223.341 198.635 223.021 198.121 222.896 197.547C222.77 196.972 222.846 196.372 223.111 195.847C223.991 193.828 222.266 191.984 222.266 191.984C221.681 191.298 221.274 190.478 221.081 189.597C220.888 188.716 220.916 187.801 221.162 186.934C222.015 183.952 218.67 175.538 218.67 175.538C218.67 175.538 216.867 186.403 214.657 199.002H184.018C183.505 198.127 183.234 197.132 183.234 196.118C183.234 195.104 183.505 194.109 184.018 193.235C185.804 190.207 184.018 189.627 184.018 189.627C184.018 189.627 182.233 186.239 184.018 183.779C185.804 181.319 184.018 171.275 184.018 171.275C184.085 171.719 184.594 170.911 185.377 169.218C186.57 166.643 188.392 162.011 190.233 156.633C191.549 152.795 192.876 148.572 193.985 144.444H193.987C194.278 143.359 194.553 142.284 194.814 141.219C195.322 139.131 195.758 137.101 196.089 135.196C196.808 131.091 197.045 127.566 196.493 125.273C196.035 123.364 195.034 122.312 193.306 122.492C194.232 122.339 195.589 122.194 197.26 122.056C197.561 122.032 197.874 122.008 198.197 121.981C210.663 121.039 237.411 120.498 237.411 120.498L245.604 135.169L255.979 153.753C255.979 153.753 255.697 178.684 256.017 199.002Z" fill="#2F2E41"/>
<path d="M221.63 57.0872L202.755 53.0833L199.007 60.627L186.386 67.9338C186.386 67.9338 194.522 101.197 194.475 105.875C194.357 117.752 175.353 144.378 189.708 142.33C204.062 140.281 206.978 131.702 211.586 133.058C215.742 134.282 220.817 139.725 224.214 135.832C227.612 131.939 228.808 136.434 230.957 136.59C231.977 136.663 231.363 131.674 233.931 136.745C236.5 141.815 250.121 134.99 245.504 130.373C237.816 122.684 236.253 66.006 236.253 66.006L227.694 63.3724L221.63 57.0872Z" fill="#E6E6E6"/>
<path d="M186.03 177.884C186.788 176.98 187.164 175.815 187.076 174.638C186.989 173.461 186.446 172.365 185.563 171.582C185.381 171.426 185.186 171.285 184.981 171.161L188.137 155.672L180.841 151.305L178.812 172.99C178.363 173.881 178.221 174.896 178.41 175.876C178.598 176.856 179.106 177.746 179.853 178.407C180.282 178.779 180.78 179.063 181.319 179.243C181.857 179.423 182.426 179.495 182.993 179.454C183.559 179.414 184.112 179.263 184.62 179.009C185.128 178.755 185.581 178.404 185.953 177.975C185.979 177.945 186.004 177.915 186.03 177.884Z" fill="#A0616A"/>
<path d="M208.683 96.2427C208.637 95.7448 208.002 95.5187 207.122 95.2065C206.238 94.9342 205.397 94.5363 204.627 94.025C202.678 92.6174 203.445 91.1452 204.505 89.1104C204.713 88.7148 204.928 88.303 205.13 87.8751C205.73 86.6074 204.775 81.3779 202.285 72.3293C201.518 69.5437 201.521 67.5763 200.99 66.2709C200.463 64.9656 199.405 64.3223 196.523 64.1877C193.038 64.0118 189.627 65.2246 187.035 67.5601C186.965 67.622 186.893 67.6893 186.823 67.7539C186.691 67.8777 186.562 68.0042 186.435 68.1334C184.039 70.5443 182.667 73.7885 182.608 77.1874L182.594 77.766L182 105.412L180.328 129.673L178.024 163.093L179.731 163.176L186.54 163.515L187.366 163.556L189.326 155.336L191.683 145.445L192.55 141.811L195.239 130.54L196.493 125.273L197.26 122.056L197.572 120.743L199.096 114.359C199.131 114.224 202.635 100.398 206.675 98.0864C208.182 97.2251 208.726 96.7245 208.683 96.2427Z" fill="#E6E6E6"/>
<path d="M254.009 177.72C253.158 176.902 252.659 175.784 252.62 174.605C252.58 173.425 253.002 172.277 253.796 171.404C253.96 171.229 254.139 171.068 254.329 170.922L249.528 155.862L256.313 150.737L260.659 172.079C261.201 172.917 261.451 173.91 261.369 174.905C261.287 175.899 260.878 176.839 260.206 177.576C259.819 177.992 259.355 178.328 258.839 178.565C258.322 178.801 257.765 178.934 257.197 178.955C256.63 178.975 256.064 178.884 255.531 178.687C254.999 178.489 254.511 178.188 254.095 177.802C254.066 177.775 254.037 177.747 254.009 177.72Z" fill="#A0616A"/>
<path d="M257.328 145.041C257.328 145.041 252.037 126.423 253.651 124.408C255.264 122.392 250.498 121.999 252.552 118.245C254.606 114.492 251.771 113.864 251.771 113.864L250.233 105.234L247.483 84.0355L247.4 83.4051L246.6 77.2379C246.376 75.4764 245.8 73.778 244.905 72.2443C244.01 70.7107 242.815 69.3732 241.392 68.3118C241.319 68.2562 241.245 68.2027 241.171 68.1493C240.832 67.9055 240.486 67.6797 240.133 67.4718C237.493 65.9144 234.393 65.3256 231.366 65.8066C225.662 66.6949 227.438 68.8218 226.512 74.5199C225.009 83.7848 224.619 89.0853 225.352 90.2829C225.599 90.6862 225.859 91.072 226.106 91.4424C227.379 93.3542 228.3 94.7333 226.513 96.3452C225.801 96.9342 225.008 97.419 224.16 97.785C223.32 98.1917 222.712 98.4836 222.72 98.9836C222.729 99.4679 223.323 99.9054 224.913 100.599C226.84 101.442 228.909 104.63 230.604 107.886C231.949 110.511 233.148 113.208 234.197 115.965L248.765 156.936L251.141 163.618L251.96 163.489L258.691 162.422L260.379 162.154L257.328 145.041Z" fill="#E6E6E6"/>
<path d="M213.666 52.8004C222.171 52.8004 229.065 45.9059 229.065 37.4011C229.065 28.8963 222.171 22.0018 213.666 22.0018C205.161 22.0018 198.267 28.8963 198.267 37.4011C198.267 45.9059 205.161 52.8004 213.666 52.8004Z" fill="#A0616A"/>
<path d="M190.57 28.9025C188.225 20.3556 207.133 13.0264 212.098 19.9093C212.789 18.9307 215.34 18.3363 216.511 18.6365C217.681 18.9367 218.666 19.6871 219.627 20.4136C220.947 21.4282 222.316 22.4788 223.127 23.9376C223.943 25.3905 224.069 27.3716 222.971 28.6324C222.1 29.6349 219.53 30.2833 218.222 30.5475C217.309 30.7336 216.541 30.8837 215.88 30.9917C215.281 30.1275 215.004 29.0797 215.1 28.032C214.655 28.3319 214.283 28.7264 214.009 29.1872C213.735 29.6481 213.566 30.1639 213.515 30.6976C213.497 30.9197 220.893 58.1336 220.893 58.1336C220.005 58.6394 219.07 59.0595 218.102 59.3884C216.186 56.461 214.719 53.2639 213.749 49.9028C213.526 52.1503 213.554 54.4156 213.833 56.6568C213.981 57.9135 214.194 59.1619 214.47 60.3969C205.68 62.2941 192.461 61.6697 186.709 53.601C186.708 53.5676 186.707 53.5342 186.706 53.5008C186.702 53.1823 186.587 52.8753 186.381 52.6323C186.175 52.3893 185.891 52.2255 185.577 52.169C185.264 52.1124 184.941 52.1665 184.663 52.3221C184.385 52.4778 184.17 52.7252 184.054 53.022C183.915 53.378 183.786 53.6861 183.672 53.9312C181.997 47.9396 184.164 41.0056 190.57 28.9025Z" fill="#2F2E41"/>
<path d="M114.198 82.1138C113.873 82.1287 113.551 82.0433 113.276 81.8692C113.001 81.6951 112.786 81.4406 112.661 81.1402C112.535 80.8399 112.505 80.5082 112.574 80.1901C112.643 79.872 112.809 79.5828 113.048 79.3619C113.088 79.2027 113.116 79.0885 113.156 78.9293C113.142 78.8947 113.128 78.8601 113.113 78.8255C111.651 75.34 106.697 75.3641 105.248 78.8547C103.962 81.9529 102.324 85.0563 101.921 88.3321C101.743 89.78 101.818 91.2478 102.142 92.6702C99.1209 86.0796 97.552 78.9164 97.5419 71.6663C97.5413 69.847 97.6424 68.0291 97.8447 66.221C98.0119 64.7388 98.2439 63.2672 98.5407 61.8061C100.16 53.8782 103.637 46.4476 108.686 40.1243C111.129 38.791 113.105 36.7408 114.348 34.2498C114.798 33.3543 115.116 32.3984 115.292 31.4119C115.017 31.448 114.253 27.2499 114.461 26.9923C114.077 26.4094 113.389 26.1197 112.97 25.5508C110.883 22.7219 108.008 23.2158 106.507 27.0601C103.302 28.6782 103.27 31.3616 105.238 33.9424C106.489 35.5844 106.661 37.8061 107.759 39.5639C107.646 39.7086 107.529 39.8487 107.416 39.9933C105.351 42.6488 103.551 45.5003 102.042 48.507C102.469 45.1723 101.838 41.1549 100.764 38.5653C99.5408 35.6147 97.2483 33.1297 95.2294 30.5788C92.8045 27.5149 87.8318 28.8521 87.4046 32.7361C87.4005 32.7737 87.3964 32.8113 87.3925 32.8489C87.6924 33.018 87.9859 33.1976 88.2731 33.3875C88.6339 33.6286 88.9135 33.973 89.0752 34.3757C89.2369 34.7783 89.2732 35.2205 89.1793 35.6441C89.0855 36.0678 88.8658 36.4532 88.5492 36.7499C88.2325 37.0465 87.8336 37.2407 87.4048 37.3068L87.3609 37.3135C87.4677 38.3943 87.6565 39.4653 87.9257 40.5175C85.3358 50.5334 90.9273 54.1815 98.9112 54.3453C99.0874 54.4357 99.2592 54.5261 99.4354 54.612C97.9194 58.9082 96.9685 63.3832 96.6066 67.9247C96.4017 70.604 96.4137 73.2955 96.6427 75.9728L96.6292 75.8779C96.0507 72.9008 94.4625 70.2144 92.1328 68.2726C88.6726 65.4302 83.7841 64.3835 80.0512 62.0988C78.2543 60.999 75.9516 62.4202 76.2652 64.5035C76.2702 64.5368 76.2753 64.57 76.2805 64.6033C76.837 64.8299 77.3788 65.091 77.9028 65.385C78.2026 65.5542 78.4962 65.7338 78.7834 65.9237C79.1442 66.1648 79.4237 66.5092 79.5854 66.9119C79.7472 67.3145 79.7835 67.7566 79.6896 68.1803C79.5957 68.6039 79.3761 68.9894 79.0594 69.286C78.7428 69.5827 78.3439 69.7768 77.9151 69.843L77.8711 69.8497C77.8395 69.8542 77.8124 69.8588 77.7808 69.8633C78.7316 72.1335 80.0661 74.2231 81.7258 76.0406C83.3452 84.7842 90.3006 85.6137 97.7408 83.0675H97.7453C98.5617 86.6149 99.7444 90.0678 101.275 93.3707H113.882C113.928 93.2306 113.968 93.0859 114.009 92.9458C112.842 93.0192 111.67 92.9494 110.52 92.738C111.456 91.5902 112.391 90.4333 113.327 89.2856C113.347 89.2641 113.367 89.2415 113.385 89.2178C113.86 88.6303 114.339 88.0474 114.813 87.4599L114.813 87.4592C114.839 85.6585 114.632 83.862 114.199 82.114L114.198 82.1138Z" fill="#F2F2F2"/>
<path d="M55.3694 18.7089C55.0833 19.3757 46.2602 19.3042 45.8561 19.898C42.7405 24.4823 53.9717 43.9871 50.8561 48.5773L50.422 49.0946C51.4385 48.6261 52.4149 48.0753 53.3414 47.4476C53.4247 45.5687 53.5079 43.6838 53.5971 41.805C54.5303 42.9988 55.2835 44.3229 55.8327 45.7352C56.5581 45.2238 57.1532 44.2759 60.2624 42.4114C61.5211 41.0287 62.9722 39.8342 64.5711 38.8646L55.3694 18.7089Z" fill="#2F2E41"/>
<path d="M61.7762 56.2793C60.8026 55.645 59.6917 55.2521 58.5358 55.1331C57.3799 55.0141 56.2123 55.1725 55.1298 55.5951C54.0474 56.0178 53.0814 56.6924 52.3119 57.5632C51.5424 58.4339 50.9917 59.4756 50.7054 60.6018L37.2974 95.5374L14.2508 82.4531C14.1496 80.9492 13.5747 79.5159 12.6085 78.3589C11.6424 77.2019 10.3347 76.3806 8.87293 76.0128C7.41116 75.6449 5.87044 75.7494 4.47176 76.3114C3.07308 76.8733 1.88829 77.8638 1.08732 79.1407C0.286343 80.4176 -0.0896624 81.9154 0.0132293 83.4192C0.116121 84.923 0.692625 86.3556 1.66005 87.5116C2.62748 88.6675 3.93613 89.4873 5.39832 89.8535C6.8605 90.2197 8.4011 90.1134 9.79914 89.5499C14.6526 94.73 35.694 115.968 44.405 107.67C51.727 100.695 62.2936 73.662 64.8371 64.327C65.2446 62.8343 65.1677 61.2508 64.6176 59.8045C64.0676 58.3583 63.0727 57.1239 61.7762 56.2793Z" fill="#FFB6B6"/>
<path d="M36.6006 109.134L40.8317 128.258L71.7712 131.056L74.6146 114.405L36.6006 109.134Z" fill="#FFB6B6"/>
<path d="M83.8607 158.175C83.8466 158.449 83.8297 158.721 83.8099 158.995C83.5131 162.957 83.1739 167.528 82.8065 172.536C82.2271 180.484 81.5799 189.534 80.927 199.002H16.0312L28.6171 161.172C28.6171 161.172 33.699 158.374 31.1117 153.674C28.5245 148.974 33.6152 152.719 33.6626 146.007C33.71 139.294 38.2718 132.153 38.2718 132.153L39.0208 121.989L39.4475 121.998L73.2195 122.56L73.8357 122.572L74.873 131.297C81.171 138.791 84.384 148.4 83.8607 158.175Z" fill="#2F2E41"/>
<path d="M55.9106 47.0111L71.3106 46.2178L78.4635 57.5203C78.4635 57.5203 91.9219 59.7704 90.989 75.6294C90.0561 91.4885 74.6142 105.405 74.6142 105.405L75.2743 103.142L74.1279 106.417L74.2749 108.257L75.8388 110.205L75.9998 112.219L74.6142 115.407C74.7944 115.695 74.89 116.029 74.8902 116.369C74.8904 116.71 74.7952 117.043 74.6154 117.332C74.4356 117.621 74.1784 117.854 73.873 118.005C73.5675 118.155 73.2261 118.217 72.8874 118.183L50.6355 115.953C50.1288 114.559 49.7224 112.892 47.6916 115.667L45.5955 115.464L36.8817 114.62L36.3688 112.752C36.0774 111.69 36.032 110.576 36.236 109.494C36.4401 108.412 36.8882 107.391 37.5463 106.509C36.7894 104.139 36.9877 101.567 38.0988 99.3409L38.1405 99.2574L39.0659 98.486C39.0659 98.486 28.9421 83.2766 40.5639 71.821L45.2283 63.8915L50.4474 57.5239L55.9106 47.0111Z" fill="#8C034E"/>
<path d="M59.7436 40.3393C67.8089 40.3393 74.3471 33.8011 74.3471 25.7358C74.3471 17.6705 67.8089 11.1323 59.7436 11.1323C51.6783 11.1323 45.1401 17.6705 45.1401 25.7358C45.1401 33.8011 51.6783 40.3393 59.7436 40.3393Z" fill="#FFB6B6"/>
<path d="M70.8352 46.7732C69.646 45.7795 68.8183 44.4209 68.4806 42.9084C68.2106 44.7448 68.2811 46.6152 68.6888 48.4261C67.898 49.0207 67.131 49.5855 66.4056 50.0969C65.8563 48.6846 65.1031 47.3605 64.1699 46.1667C64.0808 48.0455 63.9975 49.9304 63.9143 51.8093C62.9877 52.437 62.0113 52.9878 60.9949 53.4563L61.4289 52.939C64.5445 48.3488 56.482 39.8998 59.5976 35.3155C60.4716 34.0312 56.5236 23.8817 53.515 23.4239C50.8394 23.0196 50.9524 23.7925 48.36 24.3574C48.0908 23.2346 47.6728 22.1528 47.1173 21.1407C47.2652 22.2685 47.2311 23.4128 47.0162 24.5298C46.0946 24.5655 45.3696 23.9783 44.3882 23.8282C38.1272 22.8709 38.7634 16.0987 40.5055 13.9522C42.2536 11.8117 48.0568 11.1696 50.7324 10.4739C50.9761 10.2361 51.5291 10.3847 51.7729 10.1588C56.9006 5.466 63.7585 4.68884 69.93 6.76878C76.5115 8.98687 80.6149 13.2799 82.7209 19.898L83.3249 25.1942C83.8668 26.8972 83.1852 34.8206 82.7209 36.5463C80.9163 43.2544 77.0731 39.9057 70.8352 46.7732Z" fill="#2F2E41"/>
<path d="M92.1283 115.961L91.5534 71.1845C91.5234 69.2875 90.7488 67.4784 89.3967 66.1476C88.0446 64.8167 86.2235 64.0708 84.3263 64.0708C83.3449 64.0708 82.3737 64.2707 81.472 64.6583C80.5703 65.0458 79.757 65.613 79.0816 66.3252C78.4063 67.0373 77.8831 67.8795 77.5439 68.8005C77.2046 69.7215 77.0565 70.7019 77.1086 71.682L79.1316 118.175L79.1701 146.478C77.9777 146.984 76.9699 147.844 76.2836 148.943C75.5973 150.041 75.2657 151.324 75.334 152.617C75.4022 153.911 75.867 155.152 76.6651 156.172C77.4632 157.192 78.556 157.941 79.795 158.319C81.034 158.696 82.3591 158.683 83.5902 158.281C84.8214 157.879 85.8991 157.108 86.6767 156.072C87.4543 155.036 87.8942 153.786 87.9366 152.492C87.979 151.197 87.6219 149.921 86.9138 148.837L92.1283 115.961Z" fill="#FFB6B6"/>
<path d="M167.498 173.891C167.498 173.891 166.609 189.883 166.201 199.003H135.589C134.959 190.703 134.747 184.605 134.747 184.605L133.072 199.003H102.13L100.212 172.337L109.482 149.359C109.482 149.359 159.719 145.874 164.379 150.294C169.036 154.711 167.498 173.891 167.498 173.891Z" fill="#2F2E41"/>
<path d="M140.43 39.3655C149.664 39.3655 157.151 31.8793 157.151 22.6447C157.151 13.41 149.664 5.92387 140.43 5.92387C131.195 5.92387 123.709 13.41 123.709 22.6447C123.709 31.8793 131.195 39.3655 140.43 39.3655Z" fill="#FFB6B6"/>
<path d="M159.919 17.2115C158.201 17.9946 157.089 23.6664 155.739 22.3478C154.389 21.0292 154.479 19.3133 152.659 18.8267C151.189 18.432 149.608 18.8831 148.267 19.5944C148.028 19.7199 147.796 19.8564 147.569 19.9921C147.42 19.8924 147.272 19.7985 147.112 19.7119C145.913 19.0702 144.513 18.9128 143.202 19.2721C144.238 19.6192 145.139 20.2834 145.778 21.1708C145.329 21.4714 144.875 21.7729 144.41 22.04C140.526 24.281 135 19.408 130.913 17.5773C133.473 22.382 132.212 24.3719 129.989 29.341L129.912 29.6239C130.039 28.3785 126.185 27.4504 126.408 29.2036C126.567 30.4483 127.644 33.2151 128.248 34.3141C123.95 29.3447 121.013 23.2636 121.633 16.9904C121.768 15.6726 121.727 14.2822 122.407 13.1384C123.087 12.0006 124.506 11.2021 125.761 11.636C125.654 9.63539 126.092 7.64338 127.027 5.87173C127.963 4.10008 129.361 2.615 131.073 1.57438C132.785 0.533762 134.747 -0.0234997 136.75 -0.0381628C138.753 -0.0528258 140.723 0.475661 142.45 1.49111C144.055 2.43274 145.395 3.7645 146.865 4.91325C148.336 6.06199 150.032 7.06331 151.897 7.15814C153.08 7.21521 154.367 6.92636 155.384 7.53914C156.561 8.25018 156.763 9.73887 156.94 11.1714C155.889 11.2749 154.894 11.6892 154.08 12.3613C155.167 12.2505 156.261 12.4851 157.206 13.0318C157.224 13.04 157.242 13.0497 157.258 13.0609C157.88 15.4284 157.816 15.9532 159.919 17.2115Z" fill="#2F2E41"/>
<path d="M102.205 157.448C116.444 140.781 111.634 119.582 105.983 98.1819L107.058 66.5682C107.111 65.0174 107.536 63.5021 108.298 62.1502C109.059 60.7983 110.135 59.6495 111.434 58.8009L125.97 49.3043L131.628 41.1241L147.224 42.6836L155.872 51.8296L165.445 59.1377C167.849 60.9727 169.678 63.4566 170.716 66.2966C171.755 69.1367 171.96 72.2144 171.307 75.1671L162.146 116.596C162.146 116.596 165.977 138.073 163.639 140.445C161.301 142.817 155.277 140.446 160.055 143.109C165.787 146.304 171 145.714 168.099 148.616C165.198 151.517 168.87 155.55 168.87 155.55L102.205 157.448Z" fill="#8C034E"/>
<path d="M108.292 181.671L110.666 164.759L101.194 162.055L99.3201 180.025C98.5362 180.744 97.9684 181.667 97.6804 182.691C97.3924 183.714 97.3957 184.798 97.6899 185.82C97.9841 186.842 98.5576 187.762 99.3459 188.476C100.134 189.19 101.106 189.67 102.152 189.862C103.198 190.054 104.277 189.95 105.267 189.563C106.258 189.175 107.12 188.519 107.758 187.668C108.396 186.817 108.784 185.805 108.878 184.745C108.973 183.686 108.769 182.621 108.292 181.671Z" fill="#FFB6B6"/>
<path d="M126.325 52.353C126.325 52.353 99.3639 61.1281 98.7211 67.5487C98.0782 73.9693 98.2914 77.8998 95.4458 103.592L95.5957 172.801C95.5957 172.801 113.672 176.671 111.818 172.533C109.964 168.395 110.611 166.448 110.611 166.448C110.611 166.448 114.487 164.919 113.516 160.061C112.546 155.202 117.411 131.125 117.411 131.125L120.482 87.9438L126.325 52.353Z" fill="#8C034E"/>
<path d="M159.57 180.776L158.307 163.744L167.935 161.665L168.63 179.719C169.365 180.488 169.872 181.446 170.092 182.487C170.313 183.527 170.238 184.608 169.878 185.609C169.518 186.609 168.885 187.49 168.052 188.151C167.219 188.811 166.218 189.227 165.161 189.35C164.105 189.473 163.035 189.299 162.072 188.848C161.109 188.396 160.291 187.685 159.71 186.794C159.13 185.903 158.809 184.868 158.784 183.805C158.759 182.742 159.031 181.693 159.57 180.776Z" fill="#FFB6B6"/>
<path d="M150.028 50.5552C150.028 50.5552 176.359 61.0738 176.58 67.5227C176.802 73.9716 176.333 77.8797 177.493 103.703L172.819 172.754C172.819 172.754 154.529 175.434 156.649 171.427C158.769 167.419 158.251 165.434 158.251 165.434C158.251 165.434 154.484 163.654 155.77 158.87C157.055 154.085 153.774 129.741 153.774 129.741L153.533 86.4519L150.028 50.5552Z" fill="#8C034E"/>
</g>
<defs>
<clipPath id="clip0_401_13232">
<rect width="261.385" height="199.003" fill="white"/>
</clipPath>
</defs>
</svg>
