<svg width="30" height="39" viewBox="0 0 30 39" fill="none" xmlns="http://www.w3.org/2000/svg">
<path d="M27.8173 34.6965C24.1714 37.201 19.7562 38.6667 14.9988 38.6667C10.2412 38.6667 5.82598 37.2009 2.18003 34.6964C0.569754 33.5902 -0.118394 31.4831 0.817859 29.7684C2.75873 26.2139 6.75799 24 14.9986 24C23.2394 24 27.2387 26.214 29.1795 29.7686C30.1157 31.4833 29.4276 33.5904 27.8173 34.6965Z" fill="#202020"/>
<path d="M14.9988 16C19.4171 16 22.9988 12.4183 22.9988 8C22.9988 3.58172 19.4171 0 14.9988 0C10.5805 0 6.99882 3.58172 6.99882 8C6.99882 12.4183 10.5805 16 14.9988 16Z" fill="#202020"/>
</svg>
