<svg width="150" height="48" viewBox="0 0 150 48" fill="none" xmlns="http://www.w3.org/2000/svg">
<path d="M56.1479 4H42.8747C37.5254 4 33.1889 8.33651 33.1889 13.6859C33.1889 19.0352 37.5254 23.3717 42.8747 23.3717H53.6368C59.3824 23.3717 64.0401 28.0295 64.0401 33.7751C64.0401 39.5207 59.3824 44.1784 53.6368 44.1784H31.5882M53.582 33.7087L19.3659 33.7087M9.86306 33.7087H4M23.1894 44.1784H21.9949" stroke="white" stroke-width="7.17471" stroke-linecap="round"/>
<path d="M74.0148 43.6983L74.0147 43.6984L74.0221 43.7057C76.2153 45.899 79.2216 46.9562 82.9453 46.9562C84.8879 46.9562 86.4836 46.7782 87.6997 46.3941L87.6998 46.3942L87.7106 46.3906C88.8955 45.9956 89.9951 45.5078 91.0073 44.9257C91.4036 44.7084 91.743 44.4289 92.0126 44.0834C92.3401 43.6724 92.5193 43.1948 92.5193 42.6697C92.5193 41.9793 92.2659 41.3727 91.7578 40.907C91.2756 40.465 90.6922 40.2338 90.0393 40.2338C89.6475 40.2338 89.2712 40.3128 88.9253 40.4858C88.1459 40.8755 87.3234 41.1966 86.457 41.4489C85.6248 41.6623 84.5763 41.7759 83.2978 41.7759C81.0326 41.7759 79.413 41.2179 78.326 40.2086C77.3722 39.298 76.7349 38.1354 76.4305 36.6897H90.524C91.2954 36.6897 91.9827 36.4457 92.4953 35.8967C93.0101 35.377 93.2683 34.726 93.2683 33.9894C93.2683 31.9196 92.8353 29.9909 91.9633 28.2139C91.1143 26.4238 89.8535 24.9744 88.1914 23.8759C86.4941 22.7242 84.4384 22.1683 82.064 22.1683C79.517 22.1683 77.3619 22.7522 75.6535 23.977C73.9865 25.1723 72.7566 26.734 71.9717 28.6482C71.1997 30.5016 70.8157 32.4752 70.8157 34.5622C70.8157 38.3936 71.8526 41.4725 74.0148 43.6983ZM87.7943 31.9941H76.3764C76.5243 30.9263 76.8467 30.0809 77.3151 29.4291C77.9242 28.5818 78.6514 27.9769 79.4969 27.5926C80.3854 27.1888 81.2393 26.996 82.064 26.996C82.8888 26.996 83.7427 27.1888 84.6312 27.5926C85.4767 27.9769 86.2039 28.5818 86.813 29.4291L86.8172 29.435L86.8216 29.4409C87.309 30.0907 87.6428 30.932 87.7943 31.9941Z" fill="white" stroke="white" stroke-width="1.43494"/>
<path d="M102.374 45.4978L102.379 45.5005C104.123 46.4659 105.946 46.9562 107.838 46.9562C109.487 46.9562 110.989 46.6446 112.332 46.0052C113.172 45.6053 113.959 45.1044 114.692 44.5047C114.781 45.0543 115.03 45.5445 115.438 45.9529L115.447 45.9623L115.457 45.9713C116 46.4757 116.659 46.7359 117.399 46.7359C118.141 46.7359 118.795 46.4743 119.317 45.9529C119.838 45.4315 120.1 44.7769 120.1 44.0356V15.4392C120.1 14.6799 119.846 14.0067 119.317 13.4778L118.813 13.9815L119.317 13.4778C118.795 12.9565 118.141 12.6949 117.399 12.6949C116.659 12.6949 116 12.9551 115.457 13.4594L115.447 13.4684L115.438 13.4778C114.909 14.0067 114.655 14.6799 114.655 15.4392V24.5897C113.932 24.0033 113.158 23.5124 112.332 23.1192C110.989 22.4798 109.487 22.1683 107.838 22.1683C105.946 22.1683 104.123 22.6585 102.379 23.6239L102.379 23.6239L102.374 23.6266C100.642 24.603 99.2196 26.016 98.1045 27.8435L98.1045 27.8435L98.0999 27.8512C96.992 29.7187 96.4573 31.9671 96.4573 34.5622C96.4573 37.1573 96.992 39.4057 98.0999 41.2732L98.0999 41.2732L98.1045 41.2809C99.2196 43.1084 100.642 44.5214 102.374 45.4978ZM111.986 28.229L111.986 28.2292L111.999 28.2356C113.018 28.7706 113.902 29.4316 114.655 30.218V38.9066C113.9 39.6966 113.014 40.3734 111.993 40.9361C110.93 41.4923 109.741 41.7759 108.411 41.7759C106.498 41.7759 104.951 41.1636 103.716 39.9565C102.543 38.7818 101.902 37.024 101.902 34.5622C101.902 32.0652 102.546 30.3126 103.713 29.1707L103.713 29.1706C104.948 27.9617 106.496 27.3485 108.411 27.3485C109.738 27.3485 110.925 27.6453 111.986 28.229Z" fill="white" stroke="white" stroke-width="1.43494"/>
<path d="M130.409 45.4036L130.409 45.4037L130.417 45.4083C132.245 46.4481 134.353 46.9562 136.72 46.9562C139.087 46.9562 141.183 46.4482 142.984 45.4056L142.987 45.4036C144.804 44.3388 146.218 42.8772 147.221 41.0289L147.223 41.0245C148.227 39.1424 148.718 36.9815 148.718 34.5622C148.718 32.1443 148.228 29.9965 147.222 28.1417C146.221 26.2652 144.806 24.8011 142.986 23.7639C141.185 22.6914 139.088 22.1683 136.72 22.1683C134.351 22.1683 132.241 22.692 130.413 23.7625C128.591 24.8002 127.175 26.2656 126.173 28.144L126.173 28.144L126.171 28.1479C125.197 30.0014 124.723 32.1468 124.723 34.5622C124.723 36.978 125.197 39.1359 126.169 41.0162L126.172 41.0226L126.176 41.0289C127.178 42.8772 128.593 44.3388 130.409 45.4036ZM142.239 38.8486L142.237 38.8526C141.566 39.9258 140.739 40.677 139.762 41.14C138.731 41.6282 137.719 41.8641 136.72 41.8641C135.722 41.8641 134.694 41.6284 133.631 41.1385C132.656 40.6758 131.832 39.9262 131.162 38.8559C130.519 37.799 130.168 36.3706 130.168 34.5182C130.168 32.6625 130.52 31.2519 131.16 30.2278C131.829 29.1571 132.651 28.4246 133.621 27.9909L133.621 27.991L133.628 27.9875C134.692 27.4965 135.721 27.2604 136.72 27.2604C137.719 27.2604 138.731 27.4963 139.762 27.9844L139.769 27.9878L139.776 27.9909C140.745 28.4246 141.567 29.1571 142.237 30.2278L142.236 30.2279L142.243 30.2386C142.908 31.2605 143.273 32.6669 143.273 34.5182C143.273 36.3682 142.908 37.7935 142.239 38.8486Z" fill="white" stroke="white" stroke-width="1.43494"/>
</svg>
