<svg width="15" height="16" viewBox="0 0 15 16" fill="none" xmlns="http://www.w3.org/2000/svg">
<path fill-rule="evenodd" clip-rule="evenodd" d="M15 8C15 12.1421 11.6421 15.5 7.5 15.5C3.35786 15.5 0 12.1421 0 8C0 3.85786 3.35786 0.5 7.5 0.5C11.6421 0.5 15 3.85786 15 8ZM9.75 5.75C9.75 6.99264 8.74264 8 7.5 8C6.25736 8 5.25 6.99264 5.25 5.75C5.25 4.50736 6.25736 3.5 7.5 3.5C8.74264 3.5 9.75 4.50736 9.75 5.75ZM7.49999 14.375C8.83803 14.375 10.0798 13.9628 11.1052 13.2584C11.5581 12.9473 11.7516 12.3547 11.4883 11.8724C10.9425 10.8727 9.81767 10.25 7.49995 10.25C5.18227 10.25 4.05748 10.8727 3.51161 11.8724C3.24828 12.3546 3.44183 12.9472 3.89472 13.2584C4.92014 13.9628 6.16192 14.375 7.49999 14.375Z" fill="url(#paint0_linear_237_3092)"/>
<defs>
<linearGradient id="paint0_linear_237_3092" x1="20.66" y1="-5.24736" x2="-5.33735" y2="2.05998" gradientUnits="userSpaceOnUse">
<stop stop-color="#F82398"/>
<stop offset="0.448044" stop-color="#C81577"/>
<stop offset="1" stop-color="#A9005D"/>
</linearGradient>
</defs>
</svg>
