<svg width="19" height="18" viewBox="0 0 19 18" fill="none" xmlns="http://www.w3.org/2000/svg">
<path d="M14.3118 7.28218V6.75372C14.3118 3.85217 12.0456 1.5 9.25 1.5C6.45442 1.5 4.18815 3.85217 4.18815 6.75372V7.28218C4.18815 7.91637 4.00729 8.53637 3.66835 9.06405L2.83777 10.3571C2.07912 11.5383 2.65828 13.1437 3.97777 13.5172C7.42956 14.4943 11.0704 14.4943 14.5222 13.5172C15.8417 13.1437 16.4209 11.5383 15.6622 10.3571L14.8317 9.06405C14.4927 8.53637 14.3118 7.91637 14.3118 7.28218Z" stroke="url(#paint0_linear_222_3467)" stroke-width="1.5"/>
<path d="M5.875 14.25C6.36627 15.5608 7.69184 16.5 9.25 16.5C10.8082 16.5 12.1337 15.5608 12.625 14.25" stroke="url(#paint1_linear_222_3467)" stroke-width="1.5" stroke-linecap="round"/>
<defs>
<linearGradient id="paint0_linear_222_3467" x1="9.25" y1="1.5" x2="9.25" y2="14.25" gradientUnits="userSpaceOnUse">
<stop stop-color="#F82398"/>
<stop offset="0.45" stop-color="#C81577"/>
<stop offset="1" stop-color="#A9005D"/>
</linearGradient>
<linearGradient id="paint1_linear_222_3467" x1="9.25" y1="16.5" x2="9.25" y2="14.25" gradientUnits="userSpaceOnUse">
<stop stop-color="#F82398"/>
<stop offset="0.45" stop-color="#C81577"/>
<stop offset="1" stop-color="#A9005D"/>
</linearGradient>
</defs>
</svg>
