<svg width="16" height="16" viewBox="0 0 16 16" fill="none" xmlns="http://www.w3.org/2000/svg">
<path d="M0.8272 2.85978C0.5 3.23222 0.5 3.87079 0.5 5.14793V12.1929C0.5 13.0974 0.5 13.5496 0.735947 13.8901C0.971895 14.2306 1.38441 14.3736 2.20943 14.6596L3.18007 14.9961C3.70577 15.1784 4.11028 15.3186 4.44975 15.4089C4.6712 15.4678 4.875 15.294 4.875 15.0648V3.70221C4.875 3.51552 4.73723 3.35797 4.55627 3.31207C4.26435 3.23802 3.91345 3.11636 3.43251 2.94963C2.26757 2.54576 1.6851 2.34383 1.24191 2.54889C1.08456 2.6217 0.94337 2.72754 0.8272 2.85978Z" fill="url(#paint0_linear_247_1102)"/>
<path d="M8.46529 1.61035L7.31331 2.4091C6.89656 2.69807 6.59114 2.90984 6.33032 3.06082C6.20671 3.13237 6.125 3.26182 6.125 3.40464V14.6898C6.125 14.9678 6.41298 15.1413 6.64712 14.9915C6.89842 14.8308 7.18617 14.6313 7.53471 14.3896L8.68669 13.5908C9.10343 13.3019 9.40887 13.0901 9.66969 12.9391C9.79329 12.8676 9.875 12.7381 9.875 12.5953V1.31011C9.875 1.03217 9.58702 0.85863 9.35288 1.00841C9.10158 1.16916 8.81382 1.36869 8.46529 1.61035Z" fill="url(#paint1_linear_247_1102)"/>
<path d="M13.7906 1.34033L12.8199 1.00383C12.2942 0.821556 11.8897 0.681344 11.5503 0.591039C11.3288 0.532131 11.125 0.705955 11.125 0.935114V12.2977C11.125 12.4844 11.2628 12.642 11.4437 12.6879C11.7356 12.7619 12.0866 12.8836 12.5675 13.0503C13.7324 13.4542 14.3149 13.6561 14.7581 13.4511C14.9154 13.3782 15.0566 13.2724 15.1728 13.1402C15.5 12.7677 15.5 12.1292 15.5 10.852V3.80705C15.5 2.90256 15.5 2.45032 15.2641 2.10984C15.0281 1.76937 14.6156 1.62636 13.7906 1.34033Z" fill="url(#paint2_linear_247_1102)"/>
<defs>
<linearGradient id="paint0_linear_247_1102" x1="21.16" y1="-5.10697" x2="-4.79641" y2="2.26702" gradientUnits="userSpaceOnUse">
<stop stop-color="#F82398"/>
<stop offset="0.448044" stop-color="#C81577"/>
<stop offset="1" stop-color="#69023A"/>
</linearGradient>
<linearGradient id="paint1_linear_247_1102" x1="21.16" y1="-5.10697" x2="-4.79641" y2="2.26702" gradientUnits="userSpaceOnUse">
<stop stop-color="#F82398"/>
<stop offset="0.448044" stop-color="#C81577"/>
<stop offset="1" stop-color="#69023A"/>
</linearGradient>
<linearGradient id="paint2_linear_247_1102" x1="21.16" y1="-5.10697" x2="-4.79641" y2="2.26702" gradientUnits="userSpaceOnUse">
<stop stop-color="#F82398"/>
<stop offset="0.448044" stop-color="#C81577"/>
<stop offset="1" stop-color="#69023A"/>
</linearGradient>
</defs>
</svg>
