<svg width="18" height="18" viewBox="0 0 18 18" fill="none" xmlns="http://www.w3.org/2000/svg">
<path d="M5 8.25L8 1.5C8.59674 1.5 9.16903 1.73705 9.59099 2.15901C10.0129 2.58097 10.25 3.15326 10.25 3.75V6.75H14.495C14.7124 6.74754 14.9278 6.79238 15.1262 6.88141C15.3246 6.97045 15.5012 7.10155 15.6439 7.26564C15.7866 7.42972 15.8919 7.62287 15.9525 7.83169C16.0131 8.04051 16.0276 8.26002 15.995 8.475L14.96 15.225C14.9058 15.5827 14.7241 15.9087 14.4484 16.143C14.1728 16.3773 13.8217 16.5041 13.46 16.5H5M5 8.25V16.5M5 8.25H2.75C2.35218 8.25 1.97064 8.40804 1.68934 8.68934C1.40804 8.97064 1.25 9.35218 1.25 9.75V15C1.25 15.3978 1.40804 15.7794 1.68934 16.0607C1.97064 16.342 2.35218 16.5 2.75 16.5H5" stroke="#404040" stroke-width="2" stroke-linecap="round" stroke-linejoin="round"/>
</svg>
