<svg width="18" height="18" viewBox="0 0 18 18" fill="none" xmlns="http://www.w3.org/2000/svg">
<path d="M2.25 6.53204C2.25 5.42688 2.25 4.8743 2.54448 4.55201C2.64903 4.43758 2.7761 4.346 2.91772 4.28299C3.31659 4.10554 3.84082 4.28028 4.88926 4.62977C5.6897 4.89658 6.08992 5.02998 6.49433 5.01618C6.64285 5.0111 6.79051 4.99133 6.93514 4.95714C7.32893 4.86406 7.67995 4.63005 8.38198 4.16203L9.41876 3.47084C10.318 2.87132 10.7677 2.57157 11.2838 2.50245C11.7999 2.43333 12.3126 2.60421 13.3379 2.94599L14.2115 3.23718C14.954 3.48469 15.3253 3.60844 15.5376 3.90307C15.75 4.19769 15.75 4.58903 15.75 5.37172V11.468C15.75 12.5731 15.75 13.1257 15.4555 13.448C15.351 13.5624 15.2239 13.654 15.0823 13.717C14.6834 13.8945 14.1592 13.7197 13.1107 13.3703C12.3103 13.1034 11.9101 12.97 11.5057 12.9838C11.3571 12.9889 11.2095 13.0087 11.0649 13.0429C10.6711 13.136 10.3201 13.37 9.61802 13.838L8.58124 14.5292C7.68197 15.1287 7.23233 15.4285 6.71619 15.4976C6.20006 15.5667 5.68739 15.3958 4.66206 15.054L3.78849 14.7628C3.04597 14.5153 2.67471 14.3916 2.46235 14.097C2.25 13.8023 2.25 13.411 2.25 12.6283V6.53204Z" stroke="#404040" stroke-width="1.5"/>
<path d="M6.75 4.979V15.375" stroke="#404040" stroke-width="1.5"/>
<path d="M11.25 2.25V12.75" stroke="#404040" stroke-width="1.5"/>
</svg>
