<svg width="19" height="18" viewBox="0 0 19 18" fill="none" xmlns="http://www.w3.org/2000/svg">
<path d="M5.94897 11.4984C6.05927 11.8977 6.47235 12.1319 6.87161 12.0216C7.27086 11.9113 7.50511 11.4982 7.39481 11.099L5.94897 11.4984ZM5.05769 5.45582L5.78061 5.2561V5.2561L5.05769 5.45582ZM4.02777 4.43996L3.82726 5.16266L4.02777 4.43996ZM2.95051 3.36275C2.55138 3.25201 2.13804 3.4858 2.0273 3.88494C1.91656 4.28407 2.15035 4.69741 2.54949 4.80815L2.95051 3.36275ZM15.6886 11.9756C16.0895 11.8714 16.3301 11.4619 16.2259 11.061C16.1217 10.6601 15.7123 10.4196 15.3114 10.5238L15.6886 11.9756ZM7.9676 13.219C8.17066 13.9541 7.72703 14.74 6.92075 14.9496L7.29804 16.4013C8.87748 15.9909 9.84963 14.3985 9.41344 12.8196L7.9676 13.219ZM6.92075 14.9496C6.10665 15.1611 5.29941 14.6867 5.09374 13.9422L3.6479 14.3417C4.08147 15.9111 5.72644 16.8098 7.29804 16.4013L6.92075 14.9496ZM5.09374 13.9422C4.89067 13.2072 5.33431 12.4212 6.14058 12.2117L5.76329 10.7599C4.18386 11.1704 3.21171 12.7628 3.6479 14.3417L5.09374 13.9422ZM6.14058 12.2117C6.95469 12.0001 7.76193 12.4746 7.9676 13.219L9.41344 12.8196C8.97987 11.2502 7.33489 10.3515 5.76329 10.7599L6.14058 12.2117ZM7.39481 11.099L5.78061 5.2561L4.33477 5.65554L5.94897 11.4984L7.39481 11.099ZM4.22828 3.71726L2.95051 3.36275L2.54949 4.80815L3.82726 5.16266L4.22828 3.71726ZM5.78061 5.2561C5.57266 4.50338 4.97736 3.92509 4.22828 3.71726L3.82726 5.16266C4.08505 5.23419 4.27167 5.42714 4.33477 5.65554L5.78061 5.2561ZM8.87917 13.7452L15.6886 11.9756L15.3114 10.5238L8.50188 12.2934L8.87917 13.7452Z" fill="#404040"/>
<path d="M7.6743 6.54787C7.31054 5.23119 7.12867 4.57285 7.4374 4.05421C7.74613 3.53557 8.42491 3.35917 9.78246 3.00637L11.2224 2.63216C12.5799 2.27936 13.2587 2.10296 13.7934 2.4024C14.3282 2.70183 14.51 3.36017 14.8738 4.67685L15.2596 6.0734C15.6234 7.39008 15.8053 8.04842 15.4965 8.56706C15.1878 9.0857 14.509 9.2621 13.1515 9.6149L11.7116 9.98911C10.354 10.3419 9.67523 10.5183 9.14049 10.2189C8.60575 9.91943 8.42387 9.2611 8.06012 7.94442L7.6743 6.54787Z" stroke="#404040" stroke-width="1.5"/>
</svg>
