<svg width="20" height="20" viewBox="0 0 20 20" fill="none" xmlns="http://www.w3.org/2000/svg">
<path d="M3.3335 18.3333H16.6668" stroke="url(#paint0_linear_407_2804)" stroke-width="1.5" stroke-linecap="round"/>
<path d="M11.5735 3.05246L12.1915 2.43454C13.2153 1.41074 14.8752 1.41074 15.899 2.43454C16.9228 3.45834 16.9228 5.11825 15.899 6.14206L15.2811 6.75998M11.5735 3.05246C11.5735 3.05246 11.6508 4.36554 12.8094 5.52414C13.968 6.68274 15.2811 6.75998 15.2811 6.75998M11.5735 3.05246L5.89271 8.73329C5.50794 9.11806 5.31555 9.31045 5.15009 9.52258C4.95492 9.77281 4.78759 10.0436 4.65106 10.33C4.53532 10.5729 4.44928 10.831 4.2772 11.3472L3.54803 13.5347M15.2811 6.75998L9.60023 12.4408C9.21546 12.8256 9.02307 13.018 8.81094 13.1834C8.56071 13.3786 8.28996 13.5459 8.00348 13.6825C7.76063 13.7982 7.50251 13.8842 6.98628 14.0563L4.79878 14.7855M4.79878 14.7855L4.26406 14.9637C4.01002 15.0484 3.72993 14.9823 3.54058 14.7929C3.35123 14.6036 3.28511 14.3235 3.3698 14.0695L3.54803 13.5347M4.79878 14.7855L3.54803 13.5347" stroke="url(#paint1_linear_407_2804)" stroke-width="1.5"/>
<defs>
<linearGradient id="paint0_linear_407_2804" x1="21.6979" y1="17.9502" x2="20.0407" y2="24.1612" gradientUnits="userSpaceOnUse">
<stop stop-color="#F82398"/>
<stop offset="0.448044" stop-color="#C81577"/>
<stop offset="1" stop-color="#A9005D"/>
</linearGradient>
<linearGradient id="paint1_linear_407_2804" x1="21.6979" y1="-3.44207" x2="-1.41081" y2="3.05333" gradientUnits="userSpaceOnUse">
<stop stop-color="#F82398"/>
<stop offset="0.448044" stop-color="#C81577"/>
<stop offset="1" stop-color="#A9005D"/>
</linearGradient>
</defs>
</svg>
